<svg width="226" height="64" viewBox="0 0 226 64" fill="none" xmlns="http://www.w3.org/2000/svg">
<path d="M57.2928 53.9177V38.2767C57.2928 34.4481 53.5236 30.7678 49.0717 28.9574C53.2268 27.1469 56.4915 23.8822 56.4915 20.2614V3.81904H46.9051V0.999512H41.6222V20.4394C41.5628 22.7247 39.8117 24.179 38.3574 24.179H35.3895V0.999512H30.1066V3.81904H2.23777C0.367977 3.81904 -0.581759 6.10435 0.753808 7.41023L9.65759 16.314V47.6553L0.753808 56.5591C-0.581759 57.8947 0.367977 60.1503 2.23777 60.1503H30.1066V62.9698H35.3895V35.101H39.1291C40.5834 35.101 41.5628 36.6146 41.6222 38.8406V62.9698H46.9051V60.1503H57.6787C57.4412 58.5773 57.2928 56.3217 57.2928 53.888V53.9177Z" fill="#FFF200"/>
<path fill-rule="evenodd" clip-rule="evenodd" d="M158.2 2C149.805 2 143 9.16344 143 18V46C143 54.8366 149.805 62 158.2 62H165.8C174.195 62 181 54.8366 181 46V18C181 9.16344 174.195 2 165.8 2H158.2ZM162 47.9691L157 31.9845L162 16L167 31.9845L162 47.9691Z" fill="white"/>
<path d="M224.46 60.3313C224.222 58.7583 224.074 56.5026 224.074 54.0689V4H209.976V14.3284C203.862 7.82863 196.294 4 188.073 4H186.5V60.3313H202.141V19.6707C205.584 19.6707 208.403 29.3758 208.403 42.3753V60.3609H224.43L224.46 60.3313Z" fill="white"/>
<path d="M93.165 4C93.165 4 102.553 32.165 102.553 46.2475V54.0711C102.553 56.4946 102.711 58.7653 102.945 60.33H86.9061V49.3769H78.6472V60.33H63V46.2475C63 32.165 72.3883 4 72.3883 4H93.165ZM86.9061 38.4239C86.9061 38.4239 84.184 18.8147 82.7767 16C81.4458 18.8147 78.6472 38.4239 78.6472 38.4239H86.9061Z" fill="white"/>
<path d="M139.353 4V14.9531H128.4V60.33H112.753V14.9531H101.8V4H139.353Z" fill="white"/>
</svg>
