<svg width="90" height="24" viewBox="0 0 90 24" fill="none" xmlns="http://www.w3.org/2000/svg">
<g id="logo">
<path id="Vector" d="M21.4852 20.2191V14.3538C21.4852 12.918 20.0717 11.5379 18.4022 10.859C19.9604 10.1801 21.1847 8.95584 21.1847 7.59801V1.43214H17.5898V0.374817H15.6087V7.66479C15.5864 8.52178 14.9298 9.06713 14.3844 9.06713H13.2714V0.374817H11.2903V1.43214H0.839531C0.138358 1.43214 -0.217793 2.28913 0.283044 2.77884L3.62196 6.11776V17.8707L0.283044 21.2097C-0.217793 21.7105 0.138358 22.5564 0.839531 22.5564H11.2903V23.6137H13.2714V13.1629H14.6738C15.2191 13.1629 15.5864 13.7305 15.6087 14.5652V23.6137H17.5898V22.5564H21.6299C21.5408 21.9665 21.4852 21.1206 21.4852 20.208V20.2191Z" fill="#FFF200"/>
<path id="Vector_2" d="M53.9376 14.4105C53.9376 12.9747 52.5242 11.5947 50.8547 10.9157C52.4129 10.2368 53.6371 9.01257 53.6371 7.65474V1.5H48.0612V7.68813C48.0612 8.56738 47.3822 9.12386 46.8258 9.12386H45.7128V1.5H39.8474V22.6242H45.7128V13.2307H47.1151C47.6716 13.2307 48.05 13.8206 48.05 14.6999V18.8067C48.05 21.5892 48.2281 22.6242 49.074 22.6242H54.0601C53.971 22.0343 53.9154 21.1885 53.9154 20.2758V14.4105H53.9376Z" fill="white"/>
<path id="Subtract" fill-rule="evenodd" clip-rule="evenodd" d="M62.0471 1.5C58.7334 1.5 56.0471 4.18629 56.0471 7.49999V16.6238C56.0471 19.9375 58.7334 22.6238 62.0471 22.6238H64.2821C67.5958 22.6238 70.2821 19.9375 70.2821 16.6238V7.5C70.2821 4.18629 67.5958 1.5 64.2821 1.5H62.0471ZM63.164 17.2699L60.6709 11.9944L63.164 6.71887L65.657 11.9944L63.164 17.2699Z" fill="white"/>
<path id="Vector_3" d="M86.5048 22.6242C86.4158 22.0343 86.3601 21.1885 86.3601 20.2758V1.5H81.0735V5.37314C78.7808 2.93573 75.9427 1.5 72.8598 1.5H72.2699V22.6242H78.1353V7.3765C79.4263 7.3765 80.4836 11.0159 80.4836 15.8907V22.6354H86.4937L86.5048 22.6242Z" fill="white"/>
<path id="Subtract_2" fill-rule="evenodd" clip-rule="evenodd" d="M29.625 1.5C26.3113 1.5 23.625 4.18629 23.625 7.49999V16.6238C23.625 19.9375 26.3113 22.6238 29.625 22.6238H31.86C35.1737 22.6238 37.86 19.9375 37.86 16.6238V7.5C37.86 4.18629 35.1737 1.5 31.86 1.5H29.625ZM30.7418 17.2699L28.2488 11.9944L30.7418 6.71887L33.2349 11.9944L30.7418 17.2699Z" fill="white"/>
</g>
</svg>
