<svg width="24" height="24" viewBox="0 0 24 24" fill="none" xmlns="http://www.w3.org/2000/svg">
<g filter="url(#filter0_i_98_195249)">
<path fill-rule="evenodd" clip-rule="evenodd" d="M9.11336 2.73283C8.72283 2.34231 8.08967 2.34231 7.69914 2.73283L4.62743 5.80454C2.42583 7.44521 1 10.069 1 13.0257C1 17.9963 5.02944 22.0257 10 22.0257H14C18.9706 22.0257 23 17.9963 23 13.0257C23 10.1275 21.6301 7.54923 19.5024 5.90315L16.3321 2.73283C15.9416 2.34231 15.3084 2.34231 14.9179 2.73283L13.625 4.02573H10.4062L9.11336 2.73283ZM14.0177 15.3645C14.3089 15.0452 14.7252 14.8652 15.1826 14.8652V14.8658C16.0707 14.8796 16.7363 15.5452 16.75 16.4326C16.7363 17.3207 16.0707 17.9863 15.1833 18C14.2958 17.9863 13.6159 17.32 13.6021 16.4326C13.6021 16.3226 13.6156 16.2272 13.6291 16.1308L13.6296 16.1276L10.0098 14.0334C9.7186 14.3527 9.28862 14.5608 8.83115 14.5608C7.94371 14.5465 7.26375 13.8809 7.25 12.9934C7.26375 12.106 7.94371 11.4392 8.83115 11.4248C9.05385 11.4241 9.27413 11.4708 9.47736 11.5619C9.68059 11.6529 9.8621 11.7862 10.0098 11.9529L13.6296 9.87238L13.6276 9.85856C13.6145 9.76573 13.6015 9.67344 13.6015 9.58115C13.6159 8.69371 14.2952 8.01375 15.1826 8C16.0707 8.01375 16.7369 8.69371 16.75 9.58115C16.7363 10.4686 16.0701 11.1342 15.1826 11.1479C14.7252 11.1479 14.3089 10.9536 14.0177 10.6348L10.3704 12.7428C10.4121 12.9067 10.4121 13.0783 10.3704 13.2422L14.0177 15.3645Z" fill="url(#paint0_linear_98_195249)"/>
</g>
<mask id="mask0_98_195249" style="mask-type:alpha" maskUnits="userSpaceOnUse" x="1" y="2" width="22" height="21">
<path fill-rule="evenodd" clip-rule="evenodd" d="M9.11336 2.73283C8.72283 2.34231 8.08967 2.34231 7.69914 2.73283L4.62743 5.80454C2.42583 7.44521 1 10.069 1 13.0257C1 17.9963 5.02944 22.0257 10 22.0257H14C18.9706 22.0257 23 17.9963 23 13.0257C23 10.1275 21.6301 7.54923 19.5024 5.90315L16.3321 2.73283C15.9416 2.34231 15.3084 2.34231 14.9179 2.73283L13.625 4.02573H10.4062L9.11336 2.73283ZM14.0177 15.3645C14.3089 15.0452 14.7252 14.8652 15.1826 14.8652V14.8658C16.0707 14.8796 16.7363 15.5452 16.75 16.4326C16.7363 17.3207 16.0707 17.9863 15.1833 18C14.2958 17.9863 13.6159 17.32 13.6021 16.4326C13.6021 16.3226 13.6156 16.2272 13.6291 16.1308L13.6296 16.1276L10.0098 14.0334C9.7186 14.3527 9.28862 14.5608 8.83115 14.5608C7.94371 14.5465 7.26375 13.8809 7.25 12.9934C7.26375 12.106 7.94371 11.4392 8.83115 11.4248C9.05385 11.4241 9.27413 11.4708 9.47736 11.5619C9.68059 11.6529 9.8621 11.7862 10.0098 11.9529L13.6296 9.87238L13.6276 9.85856C13.6145 9.76573 13.6015 9.67344 13.6015 9.58115C13.6159 8.69371 14.2952 8.01375 15.1826 8C16.0707 8.01375 16.7369 8.69371 16.75 9.58115C16.7363 10.4686 16.0701 11.1342 15.1826 11.1479C14.7252 11.1479 14.3089 10.9536 14.0177 10.6348L10.3704 12.7428C10.4121 12.9067 10.4121 13.0783 10.3704 13.2422L14.0177 15.3645Z" fill="#4D4D4D"/>
<path fill-rule="evenodd" clip-rule="evenodd" d="M9.11336 2.73283C8.72283 2.34231 8.08967 2.34231 7.69914 2.73283L4.62743 5.80454C2.42583 7.44521 1 10.069 1 13.0257C1 17.9963 5.02944 22.0257 10 22.0257H14C18.9706 22.0257 23 17.9963 23 13.0257C23 10.1275 21.6301 7.54923 19.5024 5.90315L16.3321 2.73283C15.9416 2.34231 15.3084 2.34231 14.9179 2.73283L13.625 4.02573H10.4062L9.11336 2.73283ZM14.0177 15.3645C14.3089 15.0452 14.7252 14.8652 15.1826 14.8652V14.8658C16.0707 14.8796 16.7363 15.5452 16.75 16.4326C16.7363 17.3207 16.0707 17.9863 15.1833 18C14.2958 17.9863 13.6159 17.32 13.6021 16.4326C13.6021 16.3226 13.6156 16.2272 13.6291 16.1308L13.6296 16.1276L10.0098 14.0334C9.7186 14.3527 9.28862 14.5608 8.83115 14.5608C7.94371 14.5465 7.26375 13.8809 7.25 12.9934C7.26375 12.106 7.94371 11.4392 8.83115 11.4248C9.05385 11.4241 9.27413 11.4708 9.47736 11.5619C9.68059 11.6529 9.8621 11.7862 10.0098 11.9529L13.6296 9.87238L13.6276 9.85856C13.6145 9.76573 13.6015 9.67344 13.6015 9.58115C13.6159 8.69371 14.2952 8.01375 15.1826 8C16.0707 8.01375 16.7369 8.69371 16.75 9.58115C16.7363 10.4686 16.0701 11.1342 15.1826 11.1479C14.7252 11.1479 14.3089 10.9536 14.0177 10.6348L10.3704 12.7428C10.4121 12.9067 10.4121 13.0783 10.3704 13.2422L14.0177 15.3645Z" fill="url(#paint1_linear_98_195249)"/>
</mask>
<g mask="url(#mask0_98_195249)">
<circle cx="36.3983" cy="2.81769" r="28.3377" fill="url(#paint2_linear_98_195249)"/>
</g>
<path d="M15.1826 14.8652C14.7252 14.8652 14.3089 15.0452 14.0177 15.3645L10.3704 13.2422C10.4121 13.0783 10.4121 12.9067 10.3704 12.7428L14.0177 10.6348C14.3089 10.9536 14.7252 11.1479 15.1826 11.1479C16.0701 11.1342 16.7363 10.4686 16.75 9.58115C16.7369 8.69371 16.0707 8.01375 15.1826 8C14.2952 8.01375 13.6159 8.69371 13.6015 9.58115C13.6015 9.67802 13.6159 9.77489 13.6296 9.87238L10.0098 11.9529C9.8621 11.7862 9.68059 11.6529 9.47736 11.5619C9.27413 11.4708 9.05385 11.4241 8.83115 11.4248C7.94371 11.4392 7.26375 12.106 7.25 12.9934C7.26375 13.8809 7.94371 14.5465 8.83115 14.5608C9.28862 14.5608 9.7186 14.3527 10.0098 14.0334L13.6296 16.1276C13.6159 16.2251 13.6021 16.3214 13.6021 16.4326C13.6159 17.32 14.2958 17.9863 15.1833 18C16.0707 17.9863 16.7363 17.3207 16.75 16.4326C16.7363 15.5452 16.0707 14.8796 15.1826 14.8658V14.8652Z" fill="black"/>
<defs>
<filter id="filter0_i_98_195249" x="1" y="2.43994" width="22" height="19.5857" filterUnits="userSpaceOnUse" color-interpolation-filters="sRGB">
<feFlood flood-opacity="0" result="BackgroundImageFix"/>
<feBlend mode="normal" in="SourceGraphic" in2="BackgroundImageFix" result="shape"/>
<feColorMatrix in="SourceAlpha" type="matrix" values="0 0 0 0 0 0 0 0 0 0 0 0 0 0 0 0 0 0 127 0" result="hardAlpha"/>
<feOffset dx="-0.5" dy="0.5"/>
<feComposite in2="hardAlpha" operator="arithmetic" k2="-1" k3="1"/>
<feColorMatrix type="matrix" values="0 0 0 0 1 0 0 0 0 1 0 0 0 0 1 0 0 0 0.99 0"/>
<feBlend mode="normal" in2="shape" result="effect1_innerShadow_98_195249"/>
</filter>
<linearGradient id="paint0_linear_98_195249" x1="17.7289" y1="3.67905" x2="7.61169" y2="22.0257" gradientUnits="userSpaceOnUse">
<stop stop-color="#FFB800"/>
<stop offset="0.45" stop-color="#FFF200"/>
<stop offset="1" stop-color="#FFB800"/>
</linearGradient>
<linearGradient id="paint1_linear_98_195249" x1="17.7289" y1="3.67905" x2="7.61169" y2="22.0257" gradientUnits="userSpaceOnUse">
<stop stop-color="#FFB800"/>
<stop offset="0.45" stop-color="#FFF200"/>
<stop offset="1" stop-color="#FFB800"/>
</linearGradient>
<linearGradient id="paint2_linear_98_195249" x1="22.22" y1="15.7966" x2="13.6936" y2="7.521" gradientUnits="userSpaceOnUse">
<stop stop-color="#FFED01" stop-opacity="0"/>
<stop offset="1" stop-color="white"/>
</linearGradient>
</defs>
</svg>
