<svg width="24" height="24" viewBox="0 0 24 24" fill="none" xmlns="http://www.w3.org/2000/svg">
<path fill-rule="evenodd" clip-rule="evenodd" d="M1 12C1 5.92508 5.92508 1 12 1C18.0749 1 23 5.92508 23 12C23 18.0749 18.0749 23 12 23C5.92508 23 1 18.0749 1 12ZM6.10547 12.3116C6.10547 12.9191 6.59796 13.4116 7.20547 13.4116H11.2121V17.4192C11.2121 18.0267 11.7046 18.5192 12.3121 18.5192C12.9196 18.5192 13.4121 18.0267 13.4121 17.4192V13.4116L17.4202 13.4116C18.0277 13.4116 18.5202 12.9191 18.5202 12.3116C18.5202 11.7041 18.0277 11.2116 17.4202 11.2116H13.4121V7.20449C13.4121 6.59698 12.9196 6.10449 12.3121 6.10449C11.7046 6.10449 11.2121 6.59698 11.2121 7.20449V11.2116H7.20547C6.59795 11.2116 6.10547 11.7041 6.10547 12.3116Z" fill="black"/>
</svg>
