<svg width="24" height="24" viewBox="0 0 24 24" fill="none" xmlns="http://www.w3.org/2000/svg">
<path d="M6.02888 10.4367C6.14055 10.3254 6.2617 10.2315 6.38915 10.1498L14.9157 1.62367C15.7475 0.792242 17.097 0.791848 17.9293 1.62406C18.7615 2.45588 18.7615 3.80502 17.9293 4.63763L10.5861 11.9808L17.9671 19.3622C18.7994 20.194 18.7994 21.5427 17.9671 22.3757C17.5508 22.7924 17.0051 23 16.4606 23C15.916 23 15.3699 22.7924 14.954 22.3757L6.38915 13.8101C6.2617 13.7285 6.13977 13.6345 6.02888 13.5233C5.6035 13.0979 5.39831 12.5375 5.40857 11.98C5.39831 11.4224 5.6035 10.8625 6.02888 10.4367Z" fill="black"/>
</svg>
