<svg width="24" height="24" viewBox="0 0 24 24" fill="none" xmlns="http://www.w3.org/2000/svg">
<path fill-rule="evenodd" clip-rule="evenodd" d="M13.1123 10.1499C13.2398 10.2316 13.3609 10.3255 13.4726 10.4368C13.898 10.8626 14.1032 11.4225 14.0929 11.9801C14.1032 12.5377 13.898 13.098 13.4726 13.5234C13.3617 13.6347 13.2398 13.7286 13.1123 13.8103L4.54749 22.3759C4.13158 22.7926 3.58545 23.0001 3.0409 23.0001C2.49635 23.0001 1.95062 22.7926 1.53432 22.3759C0.702103 21.5429 0.702103 20.1941 1.53432 19.3623L8.91533 11.9809L1.5722 4.63775C0.739985 3.80514 0.739985 2.456 1.5722 1.62418C2.40441 0.79197 3.75395 0.792365 4.58577 1.62379L13.1123 10.1499ZM22.1123 10.1499C22.2398 10.2316 22.3609 10.3255 22.4726 10.4368C22.898 10.8626 23.1032 11.4225 23.0929 11.9801C23.1032 12.5377 22.898 13.098 22.4726 13.5234C22.3617 13.6347 22.2398 13.7286 22.1123 13.8103L13.5475 22.3759C13.1316 22.7926 12.5855 23.0001 12.0409 23.0001C11.4964 23.0001 10.9506 22.7926 10.5343 22.3759C9.7021 21.5429 9.7021 20.1941 10.5343 19.3623L17.9153 11.9809L10.5722 4.63775C9.73999 3.80514 9.73999 2.456 10.5722 1.62418C11.4044 0.79197 12.7539 0.792365 13.5858 1.62379L22.1123 10.1499Z" fill="black"/>
</svg>
