<svg width="24" height="24" viewBox="0 0 24 24" fill="none" xmlns="http://www.w3.org/2000/svg">
<path d="M10.4357 6.02925C10.3244 6.14092 10.2305 6.26206 10.1488 6.38952L1.62269 14.9161C0.791265 15.7479 0.790871 17.0974 1.62308 17.9296C2.4549 18.7618 3.80405 18.7618 4.63665 17.9296L11.9798 10.5865L19.3612 17.9675C20.193 18.7997 21.5418 18.7997 22.3748 17.9675C22.7915 17.5512 22.999 17.0055 22.999 16.4609C22.999 15.9164 22.7915 15.3702 22.3748 14.9543L13.8092 6.38952C13.7275 6.26206 13.6336 6.14013 13.5223 6.02925C13.0969 5.60387 12.5366 5.39868 11.979 5.40894C11.4214 5.39868 10.8615 5.60387 10.4357 6.02925Z" fill="black"/>
</svg>
