<svg width="24" height="24" viewBox="0 0 24 24" fill="none" xmlns="http://www.w3.org/2000/svg">
<path fill-rule="evenodd" clip-rule="evenodd" d="M1.89111 10.1499C1.76365 10.2316 1.64251 10.3255 1.53084 10.4368C1.10546 10.8626 0.900263 11.4225 0.910523 11.9801C0.900263 12.5377 1.10546 13.098 1.53084 13.5234C1.64172 13.6347 1.76365 13.7286 1.89111 13.8103L10.4559 22.3759C10.8718 22.7926 11.418 23.0001 11.9625 23.0001C12.5071 23.0001 13.0528 22.7926 13.4691 22.3759C14.3013 21.5429 14.3013 20.1941 13.4691 19.3623L6.08808 11.9809L13.4312 4.63775C14.2634 3.80514 14.2634 2.456 13.4312 1.62418C12.599 0.79197 11.2495 0.792365 10.4176 1.62379L1.89111 10.1499ZM10.8911 10.1499C10.7636 10.2316 10.6425 10.3255 10.5308 10.4368C10.1055 10.8626 9.90026 11.4225 9.91052 11.9801C9.90026 12.5377 10.1055 13.098 10.5308 13.5234C10.6417 13.6347 10.7636 13.7286 10.8911 13.8103L19.4559 22.3759C19.8718 22.7926 20.418 23.0001 20.9625 23.0001C21.5071 23.0001 22.0528 22.7926 22.4691 22.3759C23.3013 21.5429 23.3013 20.1941 22.4691 19.3623L15.0881 11.9809L22.4312 4.63775C23.2634 3.80514 23.2634 2.456 22.4312 1.62418C21.599 0.79197 20.2495 0.792365 19.4176 1.62379L10.8911 10.1499Z" fill="black"/>
</svg>
