<svg width="24" height="24" viewBox="0 0 24 24" fill="none" xmlns="http://www.w3.org/2000/svg">
<path d="M17.9701 10.4368C17.8585 10.3255 17.7373 10.2316 17.6099 10.1499L9.08333 1.62379C8.25151 0.792365 6.90197 0.79197 6.06976 1.62418C5.23755 2.456 5.23755 3.80514 6.06976 4.63775L13.4129 11.9809L6.03188 19.3623C5.19966 20.1941 5.19966 21.5429 6.03188 22.3759C6.44818 22.7926 6.99392 23.0001 7.53847 23.0001C8.08301 23.0001 8.62914 22.7926 9.04505 22.3759L17.6099 13.8103C17.7373 13.7286 17.8593 13.6347 17.9701 13.5234C18.3955 13.098 18.6007 12.5377 18.5905 11.9801C18.6007 11.4225 18.3955 10.8626 17.9701 10.4368Z" fill="black"/>
</svg>
