<svg width="24" height="24" viewBox="0 0 24 24" fill="none" xmlns="http://www.w3.org/2000/svg">
<path d="M13.5623 17.971C13.6736 17.8593 13.7675 17.7382 13.8492 17.6107L22.3754 9.08418C23.2068 8.25236 23.2072 6.90283 22.375 6.07061C21.5431 5.2384 20.194 5.2384 19.3614 6.07061L12.0183 13.4137L4.63685 6.03273C3.80503 5.20052 2.45629 5.20052 1.62328 6.03273C1.20658 6.44904 0.999024 6.99477 0.999024 7.53932C0.999024 8.08387 1.20658 8.63 1.62328 9.04591L10.1889 17.6107C10.2706 17.7382 10.3645 17.8601 10.4758 17.971C10.9011 18.3964 11.4615 18.6016 12.019 18.5913C12.5766 18.6016 13.1366 18.3964 13.5623 17.971Z" fill="black"/>
</svg>
