<svg width="24" height="24" viewBox="0 0 24 24" fill="none" xmlns="http://www.w3.org/2000/svg">
<path d="M11.352 23C8.79719 22.8518 6.47595 21.8332 4.68041 20.2364L6.97762 17.9391C8.17822 18.9555 9.69111 19.6143 11.352 19.7513V23ZM3.76377 19.3197C2.16691 17.5242 1.14832 15.2029 1.00012 12.6482H4.2488C4.38582 14.309 5.04465 15.8219 6.06098 17.0225L3.76377 19.3197ZM1.00012 11.3518C1.14832 8.79706 2.16691 6.47583 3.76377 4.68029L6.06098 6.9775C5.04465 8.1781 4.38582 9.69099 4.2488 11.3518H1.00012ZM4.68041 3.76365C6.47595 2.16678 8.79719 1.14819 11.352 1V4.24868C9.69111 4.3857 8.17822 5.04453 6.97762 6.06086L4.68041 3.76365ZM12.6483 1C15.2031 1.14819 17.5243 2.16678 19.3198 3.76365L17.0226 6.06086C15.822 5.04453 14.3091 4.3857 12.6483 4.24868V1ZM20.2365 4.68029C21.8333 6.47583 22.8519 8.79706 23.0001 11.3518H19.7514C19.6144 9.69099 18.9556 8.1781 17.9393 6.9775L20.2365 4.68029ZM23.0001 12.6482C22.8519 15.2029 21.8333 17.5242 20.2365 19.3197L17.9393 17.0225C18.9556 15.8219 19.6144 14.309 19.7514 12.6482H23.0001ZM19.3198 20.2364C17.5243 21.8332 15.2031 22.8518 12.6483 23V19.7513C14.3091 19.6143 15.822 18.9555 17.0226 17.9391L19.3198 20.2364ZM12.0001 18.4816C8.42042 18.4816 5.5185 15.5797 5.5185 12C5.5185 8.4203 8.42042 5.51838 12.0001 5.51838C15.5798 5.51838 18.4817 8.4203 18.4817 12C18.4817 15.5797 15.5798 18.4816 12.0001 18.4816Z" fill="black"/>
</svg>
