<svg width="24" height="24" viewBox="0 0 24 24" fill="none" xmlns="http://www.w3.org/2000/svg">
<path d="M14.1761 6.07692C14.3317 6.07692 14.4581 6.20328 14.4581 6.35897V8.61539C14.4581 8.77108 14.3317 8.89744 14.1761 8.89744H7.40683C7.25113 8.89744 7.12477 8.77108 7.12477 8.61539V6.35897C7.12477 6.20328 7.25113 6.07692 7.40683 6.07692H14.1761ZM14.1535 23H5.15042C3.43554 23 2.04785 21.6123 2.04785 19.8974V4.10256C2.04785 2.38769 3.43554 1 5.15042 1H16.4325C18.1473 1 19.535 2.38769 19.535 4.10256V9.45026C18.9032 9.26974 18.2489 9.17949 17.5607 9.17949C17.0304 9.17949 16.5114 9.2359 16.0037 9.34872C16.1053 9.12308 16.1504 8.87487 16.1504 8.61539V6.35897C16.1504 5.2759 15.2591 4.38462 14.1761 4.38462H7.40683C6.32375 4.38462 5.43247 5.2759 5.43247 6.35897V8.61539C5.43247 9.69846 6.32375 10.5897 7.40683 10.5897H13.2622C11.4232 11.9097 10.2273 14.0759 10.2273 16.5128C10.2273 19.3221 11.8294 21.7815 14.1535 23ZM9.38119 17.641C9.38119 17.1785 8.9976 16.7949 8.53503 16.7949H6.27862C5.81606 16.7949 5.43247 17.1785 5.43247 17.641C5.43247 18.1036 5.81606 18.4872 6.27862 18.4872H8.53503C8.9976 18.4872 9.38119 18.1036 9.38119 17.641ZM9.38119 14.2564C9.38119 13.7938 8.9976 13.4103 8.53503 13.4103H6.27862C5.81606 13.4103 5.43247 13.7938 5.43247 14.2564C5.43247 14.719 5.81606 15.1026 6.27862 15.1026H8.53503C8.9976 15.1026 9.38119 14.719 9.38119 14.2564ZM23.2017 16.5128C23.2017 19.6278 20.6756 22.1538 17.5607 22.1538C14.4457 22.1538 11.9196 19.6278 11.9196 16.5128C11.9196 13.3978 14.4457 10.8718 17.5607 10.8718C20.6756 10.8718 23.2017 13.3978 23.2017 16.5128ZM20.6632 16.5128C20.6632 16.0457 20.2842 15.6667 19.8171 15.6667H18.4068V14.2564C18.4068 13.7893 18.0278 13.4103 17.5607 13.4103C17.0936 13.4103 16.7145 13.7893 16.7145 14.2564V15.6667H15.3043C14.8372 15.6667 14.4581 16.0457 14.4581 16.5128C14.4581 16.9799 14.8372 17.359 15.3043 17.359H16.7145V18.7692C16.7145 19.2363 17.0936 19.6154 17.5607 19.6154C18.0278 19.6154 18.4068 19.2363 18.4068 18.7692V17.359H19.8171C20.2842 17.359 20.6632 16.9799 20.6632 16.5128Z" fill="black"/>
</svg>
