<svg width="24" height="24" viewBox="0 0 24 24" fill="none" xmlns="http://www.w3.org/2000/svg">
<path d="M21.3263 9.06424L11.121 19.2696C10.687 19.7036 10.1102 19.9424 9.4966 19.9424C8.88299 19.9424 8.30617 19.7036 7.87224 19.2696L2.67098 14.0684C2.23705 13.6344 1.99805 13.0576 1.99805 12.444C1.99805 11.8302 2.23705 11.2534 2.67098 10.8195C3.10474 10.3855 3.68157 10.1465 4.29535 10.1465C4.90895 10.1465 5.48595 10.3855 5.91971 10.8196L9.49643 14.3962L18.0773 5.81534C18.5112 5.38141 19.088 5.14258 19.7016 5.14258C20.3152 5.14258 20.8921 5.38141 21.326 5.81534C22.222 6.71135 22.222 8.16858 21.3263 9.06424Z" fill="black"/>
</svg>
