<svg width="24" height="24" viewBox="0 0 24 24" fill="none" xmlns="http://www.w3.org/2000/svg">
<path fill-rule="evenodd" clip-rule="evenodd" d="M4.84342 2.75903C4.77546 3.17972 4.86489 3.60841 5.09824 3.98059L6.56908 6.53087H17.4327L18.9035 3.98059C19.1368 3.60841 19.2263 3.17972 19.1583 2.75903C19.0904 2.33834 18.8687 1.94843 18.5267 1.64798C18.1847 1.34753 17.7409 1.1528 17.262 1.0931C16.7831 1.0334 16.2951 1.11197 15.8715 1.31697L14.749 1.83836C14.7088 1.85542 14.6647 1.86429 14.62 1.86429C14.5753 1.86429 14.5312 1.85542 14.491 1.83836L13.033 1.20362C12.7241 1.06967 12.3841 1 12.0396 1C11.695 1 11.3551 1.06967 11.0461 1.20362L9.58818 1.83836C9.54794 1.85542 9.50384 1.86429 9.45915 1.86429C9.41447 1.86429 9.37037 1.85542 9.33013 1.83836L8.13024 1.31697C7.70659 1.11197 7.21861 1.0334 6.73974 1.0931C6.26087 1.1528 5.81703 1.34753 5.47503 1.64798C5.13303 1.94843 4.91137 2.33834 4.84342 2.75903ZM19.6835 20.965C21.1636 19.6647 21.9966 17.9021 22 16.0632V16.0292C22.0005 14.6575 21.5381 13.3164 20.6711 12.1755L17.6778 8.23105H6.32394L3.33066 12.2095C2.5362 13.2541 2.07956 14.4686 2.00949 15.7233C1.93942 16.9781 2.25855 18.2261 2.9328 19.3339C3.60706 20.4418 4.61114 21.368 5.83784 22.0137C7.06453 22.6594 8.4678 23.0003 9.89783 23H14.1039C16.197 22.997 18.2035 22.2652 19.6835 20.965ZM15.9464 16.3123V18.3276C15.9464 18.6418 15.967 18.933 16 19.136H14.5024V19.5H13.768V16.3851C13.7597 16.0977 13.6236 15.9023 13.4214 15.9023H12.9016V19.5H12.1672V19.136H8.29315C8.03323 19.136 7.90121 18.8448 8.08687 18.6724L9.32458 17.523V13.477L8.08687 12.3276C7.90121 12.159 8.03323 11.864 8.29315 11.864H12.1672V11.5H12.9016V14.4923H13.3142C13.5163 14.4923 13.7597 14.3046 13.768 14.0096V11.5H14.5024V11.864H15.835V13.9866C15.835 14.454 15.3811 14.8755 14.8035 15.1092C15.4224 15.3429 15.9464 15.818 15.9464 16.3123Z" fill="black"/>
</svg>
