<svg width="24" height="24" viewBox="0 0 24 24" fill="none" xmlns="http://www.w3.org/2000/svg">
<path fill-rule="evenodd" clip-rule="evenodd" d="M7 3C7 1.89542 7.89544 0.999992 9.00001 1L21 1.00009C22.1046 1.00009 23 1.89552 23 3.00009V15C23 16.1046 22.1046 17 21 17H20C19.4477 17 19 16.5523 19 16V8.50004C19 6.56705 17.433 5.00004 15.5 5.00004H8C7.44771 5.00004 7 4.55233 7 4.00004V3ZM1 9.00017C1 7.8956 1.89543 7.00017 3 7.00017L15 7.00019C16.1046 7.00019 17 7.89562 17 9.00019V21.0001C17 22.1047 16.1046 23.0001 15 23.0001H3C1.89543 23.0001 1 22.1047 1 21.0001V9.00017Z" fill="black"/>
</svg>
