<svg width="24" height="24" viewBox="0 0 24 24" fill="none" xmlns="http://www.w3.org/2000/svg">
<path fill-rule="evenodd" clip-rule="evenodd" d="M12.3594 4.62005L13.5194 3.46005C18.1556 -1.17615 25.1823 5.82305 20.5494 10.4801L19.3794 11.6401L12.3594 4.62005ZM2.95013 14.31C2.98104 14.0982 3.0792 13.9019 3.23013 13.75L10.9401 6.04004L17.9701 13.06L10.2501 20.77C10.0983 20.921 9.90197 21.0191 9.69013 21.05L3.14013 21.99C2.9864 22.0132 2.82937 22 2.68169 21.9514C2.53401 21.9028 2.3998 21.8202 2.28987 21.7103C2.17993 21.6004 2.09735 21.4662 2.04876 21.3185C2.00017 21.1708 1.98694 21.0138 2.01013 20.86L2.95013 14.31Z" fill="black"/>
</svg>
