<svg width="24" height="24" viewBox="0 0 24 24" fill="none" xmlns="http://www.w3.org/2000/svg">
<path fill-rule="evenodd" clip-rule="evenodd" d="M1 12C1 5.92508 5.92508 1 12 1C18.0749 1 23 5.92508 23 12C23 18.0749 18.0749 23 12 23C5.92508 23 1 18.0749 1 12ZM10.7863 15.3558C10.559 15.6006 10.4453 15.8943 10.4453 16.237C10.4453 16.5846 10.559 16.8832 10.7863 17.1328C11.0181 17.3776 11.348 17.5 11.776 17.5C12.2084 17.5 12.5383 17.3776 12.7657 17.1328C12.993 16.8832 13.1067 16.5846 13.1067 16.237C13.1067 15.8943 12.993 15.6006 12.7657 15.3558C12.5383 15.1061 12.2084 14.9813 11.776 14.9813C11.348 14.9813 11.0181 15.1061 10.7863 15.3558ZM8.7 9.41522V9.68692H10.9067V9.45194C10.9067 9.04562 10.9958 8.73965 11.1742 8.53405C11.3525 8.32844 11.6177 8.22563 11.9699 8.22563C12.3399 8.22563 12.6096 8.33089 12.779 8.54139C12.9484 8.747 13.0331 9.07009 13.0331 9.51068C13.0331 9.9219 12.9373 10.245 12.7456 10.48C12.5539 10.715 12.2552 11.0013 11.8495 11.3391C11.3725 11.7405 11.0493 12.1518 10.8799 12.5728C10.715 12.9889 10.6325 13.4882 10.6325 14.0708V14.1662H12.866V14.0854C12.866 13.7868 12.9172 13.4858 13.0198 13.1822C13.1267 12.8738 13.3719 12.5801 13.7553 12.3011C14.1788 11.9878 14.5421 11.6035 14.8453 11.1482C15.1484 10.6929 15.3 10.13 15.3 9.45928C15.3 8.52915 14.9969 7.80463 14.3906 7.28571C13.7843 6.7619 12.9819 6.5 11.9833 6.5C10.9981 6.5 10.2046 6.75211 9.60274 7.25634C9.00091 7.76057 8.7 8.4802 8.7 9.41522Z" fill="black"/>
</svg>
