<svg width="24" height="24" viewBox="0 0 24 24" fill="none" xmlns="http://www.w3.org/2000/svg">
<path fill-rule="evenodd" clip-rule="evenodd" d="M12.5 1C12.7761 1 13 1.22386 13 1.5V6C13 7.65685 14.3431 9 16 9H20.5C20.7761 9 21 9.22386 21 9.5V20C21 21.6569 19.6569 23 18 23H6C4.34315 23 3 21.6569 3 20V4C3 2.34315 4.34315 1 6 1H12.5ZM11 18C11 17.4477 11.4477 17 12 17H16C16.5523 17 17 17.4477 17 18C17 18.5523 16.5523 19 16 19H12C11.4477 19 11 18.5523 11 18ZM12 13C11.4477 13 11 13.4477 11 14C11 14.5523 11.4477 15 12 15H16C16.5523 15 17 14.5523 17 14C17 13.4477 16.5523 13 16 13H12ZM9 14C9 14.5523 8.55228 15 8 15C7.44772 15 7 14.5523 7 14C7 13.4477 7.44772 13 8 13C8.55228 13 9 13.4477 9 14ZM8 11C8.55228 11 9 10.5523 9 10C9 9.44771 8.55228 9 8 9C7.44772 9 7 9.44771 7 10C7 10.5523 7.44772 11 8 11ZM9 18C9 18.5523 8.55228 19 8 19C7.44772 19 7 18.5523 7 18C7 17.4477 7.44772 17 8 17C8.55228 17 9 17.4477 9 18ZM15 1.17157C15 1.07682 15.0768 1 15.1716 1C15.702 1 16.2107 1.21071 16.5858 1.58579L20.4142 5.41421C20.7893 5.78929 21 6.29799 21 6.82843C21 6.92318 20.9232 7 20.8284 7H16C15.4477 7 15 6.55228 15 6V1.17157Z" fill="black"/>
</svg>
