<svg width="24" height="24" viewBox="0 0 24 24" fill="none" xmlns="http://www.w3.org/2000/svg">
<path fill-rule="evenodd" clip-rule="evenodd" d="M8.67642 2.1111C8.52829 1.96297 8.28812 1.96297 8.13999 2.1111L4.63508 5.61601C2.42913 7.25629 1 9.88269 1 12.8429C1 13.1621 1.01662 13.4775 1.04905 13.7881C2.24129 12.388 4.01694 11.5 6 11.5C9.58985 11.5 12.5 14.4101 12.5 18C12.5 19.4378 12.0332 20.7665 11.2429 21.8429H14C18.9706 21.8429 23 17.8134 23 12.8429C23 9.94076 21.6264 7.35946 19.4938 5.71367L15.8913 2.1111C15.7431 1.96297 15.503 1.96297 15.3548 2.1111L13.623 3.84288H10.4082L8.67642 2.1111ZM2.46443 21.5356C4.417 23.4881 7.583 23.4881 9.53557 21.5356C11.4881 19.583 11.4881 16.417 9.53557 14.4644C7.583 12.5119 4.417 12.5119 2.46443 14.4644C0.511857 16.417 0.511857 19.583 2.46443 21.5356ZM7 16C7 15.4477 6.5523 15 6 15C5.4477 15 5 15.4477 5 16V17H4C3.4477 17 3 17.4477 3 18C3 18.5523 3.4477 19 4 19H5L5 20C5 20.5523 5.4477 21 6 21C6.5523 21 7 20.5523 7 20V19H8C8.5523 19 9 18.5523 9 18C9 17.4477 8.5523 17 8 17H7V16Z" fill="black"/>
</svg>
