<svg width="24" height="24" viewBox="0 0 24 24" fill="none" xmlns="http://www.w3.org/2000/svg">
<path fill-rule="evenodd" clip-rule="evenodd" d="M11.9961 4.70543C9.51144 4.70543 7.31666 5.94719 5.99859 7.84669L5.0127 7.16258C6.54539 4.95378 9.10157 3.50543 11.9961 3.50543C13.0707 3.50543 14.1001 3.70526 15.048 4.07032L14.6168 5.19015C13.8042 4.87724 12.921 4.70543 11.9961 4.70543Z" fill="black"/>
<path d="M2.90386 7.04166C2.73248 7.35961 2.8746 7.75009 3.21026 7.8835C3.87934 8.14942 4.64474 8.18036 5.37448 7.91475C6.10423 7.64915 6.67068 7.13345 7.01229 6.49967C7.18367 6.18172 7.04154 5.79124 6.70588 5.65783C6.03681 5.39191 5.2714 5.36098 4.54166 5.62658C3.81191 5.89219 3.24547 6.40788 2.90386 7.04166Z" fill="black"/>
<path d="M5.59438 9.88471C5.78405 10.1921 6.19327 10.2643 6.47664 10.0403C7.04147 9.5938 7.45096 8.94641 7.58582 8.18163C7.72067 7.41685 7.55729 6.66844 7.17922 6.05571C6.98956 5.74831 6.58033 5.67615 6.29697 5.90014C5.73214 6.34662 5.32264 6.99401 5.18779 7.75879C5.05294 8.52357 5.21632 9.27197 5.59438 9.88471Z" fill="black"/>
<path fill-rule="evenodd" clip-rule="evenodd" d="M8.25674 6.74224C8.42865 5.68387 8.07672 4.64339 7.32723 3.99412C7.08673 3.78579 7.06405 3.39755 7.27656 3.12697C7.48907 2.85639 7.8563 2.80593 8.09679 3.01427C9.14893 3.9257 9.64297 5.38634 9.40164 6.87208C9.34648 7.21168 9.04546 7.45792 8.72931 7.42206C8.41315 7.38621 8.20157 7.08184 8.25674 6.74224Z" fill="black"/>
<path fill-rule="evenodd" clip-rule="evenodd" d="M10.0745 6.03817C10.267 4.84231 9.99822 3.63926 9.32512 2.68353C9.13816 2.41806 9.20536 2.038 9.47523 1.83464C9.74509 1.63128 10.1154 1.68163 10.3024 1.9471C11.1513 3.15248 11.4903 4.6698 11.2475 6.17804L11.1265 6.93018C11.073 7.26235 10.7671 7.50032 10.4432 7.46169C10.1193 7.42307 9.9 7.12248 9.95346 6.79031L10.0745 6.03817Z" fill="black"/>
<path fill-rule="evenodd" clip-rule="evenodd" d="M11.8256 6.53487C12.5694 5.149 12.5198 3.47434 11.6954 2.14062L11.5127 1.84495C11.3387 1.56352 11.4263 1.19351 11.7083 1.01849C11.9903 0.843483 12.36 0.929753 12.5339 1.21118L12.7166 1.50684C13.7658 3.20431 13.829 5.33569 12.8823 7.09953L12.7174 7.40676C12.5605 7.69919 12.1967 7.80985 11.9049 7.65393C11.6131 7.498 11.5037 7.13453 11.6607 6.84209L11.8256 6.53487Z" fill="black"/>
<path fill-rule="evenodd" clip-rule="evenodd" d="M19.8625 8.94571C21.1932 8.83691 21.9194 7.34056 21.1816 6.22777L18.717 2.51063C17.9739 1.38985 16.298 1.4875 15.6901 2.68699L13.6182 6.77506C12.9981 7.99857 13.9589 9.42841 15.326 9.31663L19.8625 8.94571ZM18.1367 7.5644C18.9651 7.5644 19.6367 6.89283 19.6367 6.0644C19.6367 5.23597 18.9651 4.5644 18.1367 4.5644C17.3083 4.5644 16.6367 5.23597 16.6367 6.0644C16.6367 6.89283 17.3083 7.5644 18.1367 7.5644Z" fill="black"/>
<circle cx="18.1369" cy="6.05717" r="0.877166" fill="black"/>
<path fill-rule="evenodd" clip-rule="evenodd" d="M13.1044 19.2941C15.5891 19.2941 17.7839 18.0523 19.102 16.1528L20.0879 16.8369C18.5552 19.0457 15.999 20.4941 13.1044 20.4941C12.0441 20.4941 11.0278 20.2995 10.0902 19.9436L10.5161 18.8217C11.3197 19.1268 12.1918 19.2941 13.1044 19.2941Z" fill="black"/>
<path d="M22.1967 16.9579C22.3681 16.6399 22.226 16.2494 21.8903 16.116C21.2213 15.8501 20.4558 15.8192 19.7261 16.0848C18.9964 16.3504 18.4299 16.8661 18.0883 17.4998C17.9169 17.8178 18.059 18.2083 18.3947 18.3417C19.0638 18.6076 19.8292 18.6385 20.5589 18.3729C21.2887 18.1073 21.8551 17.5916 22.1967 16.9579Z" fill="black"/>
<path d="M19.5062 14.1148C19.3165 13.8074 18.9073 13.7353 18.6239 13.9592C18.0591 14.4057 17.6496 15.0531 17.5148 15.8179C17.3799 16.5827 17.5433 17.3311 17.9214 17.9438C18.111 18.2512 18.5203 18.3234 18.8036 18.0994C19.3684 17.6529 19.7779 17.0055 19.9128 16.2407C20.0476 15.476 19.8843 14.7275 19.5062 14.1148Z" fill="black"/>
<path fill-rule="evenodd" clip-rule="evenodd" d="M16.8439 17.2573C16.6719 18.3156 17.0239 19.3561 17.7734 20.0054C18.0139 20.2137 18.0365 20.602 17.824 20.8725C17.6115 21.1431 17.2443 21.1936 17.0038 20.9853C15.9517 20.0738 15.4576 18.6132 15.6989 17.1274C15.7541 16.7878 16.0551 16.5416 16.3713 16.5775C16.6874 16.6133 16.899 16.9177 16.8439 17.2573Z" fill="black"/>
<path fill-rule="evenodd" clip-rule="evenodd" d="M15.0261 17.9613C14.8336 19.1572 15.1024 20.3603 15.7755 21.316C15.9624 21.5815 15.8952 21.9615 15.6254 22.1649C15.3555 22.3682 14.9852 22.3179 14.7982 22.0524C13.9493 20.847 13.6103 19.3297 13.8531 17.8215L13.9741 17.0693C14.0276 16.7372 14.3335 16.4992 14.6574 16.5378C14.9813 16.5765 15.2006 16.877 15.1471 17.2092L15.0261 17.9613Z" fill="black"/>
<path fill-rule="evenodd" clip-rule="evenodd" d="M13.275 17.4646C12.5312 18.8505 12.5808 20.5252 13.4051 21.8589L13.5879 22.1546C13.7618 22.436 13.6743 22.806 13.3923 22.981C13.1103 23.156 12.7406 23.0698 12.5667 22.7883L12.3839 22.4927C11.3348 20.7952 11.2716 18.6638 12.2183 16.9L12.3832 16.5928C12.5401 16.3003 12.9039 16.1897 13.1957 16.3456C13.4875 16.5015 13.5968 16.865 13.4399 17.1574L13.275 17.4646Z" fill="black"/>
<path fill-rule="evenodd" clip-rule="evenodd" d="M5.23716 15.0538C3.90643 15.1626 3.18016 16.659 3.91798 17.7718L6.38256 21.4889C7.12567 22.6097 8.80162 22.512 9.40954 21.3125L11.4814 17.2245C12.1015 16.001 11.1407 14.5711 9.77361 14.6829L5.23716 15.0538ZM6.96341 16.4351C6.13498 16.4351 5.46341 17.1067 5.46341 17.9351C5.46341 18.7636 6.13498 19.4351 6.96341 19.4351C7.79183 19.4351 8.46341 18.7636 8.46341 17.9351C8.46341 17.1067 7.79183 16.4351 6.96341 16.4351Z" fill="black"/>
<circle cx="6.96463" cy="17.9423" r="0.877166" transform="rotate(-180 6.96463 17.9423)" fill="black"/>
</svg>
