<svg width="24" height="24" viewBox="0 0 24 24" fill="none" xmlns="http://www.w3.org/2000/svg">
<path d="M2 3.83594C2 3.34902 2.19343 2.88204 2.53773 2.53773C2.88204 2.19343 3.34902 2 3.83594 2H8.39063C8.87755 2 9.34452 2.19343 9.68883 2.53773C10.0331 2.88204 10.2266 3.34902 10.2266 3.83594C10.2266 4.32286 10.0331 4.78984 9.68883 5.13414C9.34452 5.47845 8.87755 5.67188 8.39063 5.67188H5.67188V18.3281H8.39063C8.87755 18.3281 9.34452 18.5216 9.68883 18.8659C10.0331 19.2102 10.2266 19.6771 10.2266 20.1641C10.2266 20.651 10.0331 21.118 9.68883 21.4623C9.34452 21.8066 8.87755 22 8.39063 22H3.83594C3.34902 22 2.88204 21.8066 2.53773 21.4623C2.19343 21.118 2 20.651 2 20.1641V3.83594ZM16.0912 5.3307C15.9208 5.15992 15.7183 5.02441 15.4955 4.9319C15.2727 4.8394 15.0338 4.79172 14.7926 4.79159C14.5513 4.79146 14.3124 4.83889 14.0895 4.93116C13.8665 5.02343 13.664 5.15873 13.4934 5.32932C13.3228 5.49992 13.1875 5.70247 13.0952 5.9254C13.003 6.14832 12.9555 6.38724 12.9557 6.6285C12.9558 6.86977 13.0035 7.10864 13.096 7.33146C13.1885 7.55429 13.324 7.75669 13.4948 7.92711L15.7317 10.1641H8.83594C8.34902 10.1641 7.88204 10.3575 7.53773 10.7018C7.19343 11.0461 7 11.5131 7 12C7 12.4869 7.19343 12.9539 7.53773 13.2982C7.88204 13.6425 8.34902 13.8359 8.83594 13.8359H15.7317L13.4948 16.0729C13.324 16.2433 13.1885 16.4457 13.096 16.6685C13.0035 16.8914 12.9558 17.1302 12.9557 17.3715C12.9555 17.6128 13.003 17.8517 13.0952 18.0746C13.1875 18.2975 13.3228 18.5001 13.4934 18.6707C13.664 18.8413 13.8665 18.9766 14.0895 19.0688C14.3124 19.1611 14.5513 19.2085 14.7926 19.2084C15.0338 19.2083 15.2727 19.1606 15.4955 19.0681C15.7183 18.9756 15.9208 18.8401 16.0912 18.6693L21.4623 13.2982C21.8066 12.9539 22 12.4869 22 12C22 11.5131 21.8066 11.0461 21.4623 10.7018L16.0912 5.3307Z" fill="black"/>
</svg>
