<svg width="24" height="24" viewBox="0 0 24 24" fill="none" xmlns="http://www.w3.org/2000/svg">
<g filter="url(#filter0_i_98_195248)">
<path fill-rule="evenodd" clip-rule="evenodd" d="M9 2C7.89543 2 7 2.89543 7 4C7 5.10457 7.89543 6 9 6H15C16.1046 6 17 5.10457 17 4C17 2.89543 16.1046 2 15 2H9ZM15 7C16.6569 7 18 5.65685 18 4C20.2091 4 22 5.79086 22 8V18C22 20.2091 20.2091 22 18 22H6C3.79086 22 2 20.2091 2 18V8C2 5.79086 3.79086 4 6 4C6 5.65685 7.34315 7 9 7H15ZM12.5192 10.7795C12.5192 11.473 11.957 12.0352 11.2635 12.0352C10.57 12.0352 10.0078 11.473 10.0078 10.7795C10.0078 10.086 10.57 9.5238 11.2635 9.5238C11.957 9.5238 12.5192 10.086 12.5192 10.7795ZM11.795 12.661C13.3292 12.661 14.7821 13.891 15.035 15.4039C15.1507 16.1153 14.9792 16.7924 14.5464 17.3024C14.1135 17.8124 13.4792 18.0953 12.755 18.0953H10.7492C10.1064 18.0953 9.51496 17.8424 9.09496 17.3839C8.67068 16.9253 8.46496 16.3167 8.52068 15.6739C8.66211 14.011 10.1278 12.661 11.795 12.661ZM14.118 12.5366C14.6955 12.5366 15.1637 12.0684 15.1637 11.4909C15.1637 10.9134 14.6955 10.4452 14.118 10.4452C13.5404 10.4452 13.0723 10.9134 13.0723 11.4909C13.0723 12.0684 13.5404 12.5366 14.118 12.5366ZM16.4996 13.3727C16.4996 13.8343 16.1254 14.2084 15.6638 14.2084C15.2023 14.2084 14.8281 13.8343 14.8281 13.3727C14.8281 12.9111 15.2023 12.537 15.6638 12.537C16.1254 12.537 16.4996 12.9111 16.4996 13.3727ZM8.54571 13.3724C9.12324 13.3724 9.59143 12.9042 9.59143 12.3267C9.59143 11.7491 9.12324 11.2809 8.54571 11.2809C7.96818 11.2809 7.5 11.7491 7.5 12.3267C7.5 12.9042 7.96818 13.3724 8.54571 13.3724Z" fill="#FFF200"/>
<path fill-rule="evenodd" clip-rule="evenodd" d="M9 2C7.89543 2 7 2.89543 7 4C7 5.10457 7.89543 6 9 6H15C16.1046 6 17 5.10457 17 4C17 2.89543 16.1046 2 15 2H9ZM15 7C16.6569 7 18 5.65685 18 4C20.2091 4 22 5.79086 22 8V18C22 20.2091 20.2091 22 18 22H6C3.79086 22 2 20.2091 2 18V8C2 5.79086 3.79086 4 6 4C6 5.65685 7.34315 7 9 7H15ZM12.5192 10.7795C12.5192 11.473 11.957 12.0352 11.2635 12.0352C10.57 12.0352 10.0078 11.473 10.0078 10.7795C10.0078 10.086 10.57 9.5238 11.2635 9.5238C11.957 9.5238 12.5192 10.086 12.5192 10.7795ZM11.795 12.661C13.3292 12.661 14.7821 13.891 15.035 15.4039C15.1507 16.1153 14.9792 16.7924 14.5464 17.3024C14.1135 17.8124 13.4792 18.0953 12.755 18.0953H10.7492C10.1064 18.0953 9.51496 17.8424 9.09496 17.3839C8.67068 16.9253 8.46496 16.3167 8.52068 15.6739C8.66211 14.011 10.1278 12.661 11.795 12.661ZM14.118 12.5366C14.6955 12.5366 15.1637 12.0684 15.1637 11.4909C15.1637 10.9134 14.6955 10.4452 14.118 10.4452C13.5404 10.4452 13.0723 10.9134 13.0723 11.4909C13.0723 12.0684 13.5404 12.5366 14.118 12.5366ZM16.4996 13.3727C16.4996 13.8343 16.1254 14.2084 15.6638 14.2084C15.2023 14.2084 14.8281 13.8343 14.8281 13.3727C14.8281 12.9111 15.2023 12.537 15.6638 12.537C16.1254 12.537 16.4996 12.9111 16.4996 13.3727ZM8.54571 13.3724C9.12324 13.3724 9.59143 12.9042 9.59143 12.3267C9.59143 11.7491 9.12324 11.2809 8.54571 11.2809C7.96818 11.2809 7.5 11.7491 7.5 12.3267C7.5 12.9042 7.96818 13.3724 8.54571 13.3724Z" fill="url(#paint0_linear_98_195248)"/>
</g>
<mask id="mask0_98_195248" style="mask-type:alpha" maskUnits="userSpaceOnUse" x="2" y="2" width="20" height="20">
<path fill-rule="evenodd" clip-rule="evenodd" d="M9 2C7.89543 2 7 2.89543 7 4C7 5.10457 7.89543 6 9 6H15C16.1046 6 17 5.10457 17 4C17 2.89543 16.1046 2 15 2H9ZM15 7C16.6569 7 18 5.65685 18 4C20.2091 4 22 5.79086 22 8V18C22 20.2091 20.2091 22 18 22H6C3.79086 22 2 20.2091 2 18V8C2 5.79086 3.79086 4 6 4C6 5.65685 7.34315 7 9 7H15ZM12.5192 10.7795C12.5192 11.473 11.957 12.0352 11.2635 12.0352C10.57 12.0352 10.0078 11.473 10.0078 10.7795C10.0078 10.086 10.57 9.5238 11.2635 9.5238C11.957 9.5238 12.5192 10.086 12.5192 10.7795ZM11.795 12.661C13.3292 12.661 14.7821 13.891 15.035 15.4039C15.1507 16.1153 14.9792 16.7924 14.5464 17.3024C14.1135 17.8124 13.4792 18.0953 12.755 18.0953H10.7492C10.1064 18.0953 9.51496 17.8424 9.09496 17.3839C8.67068 16.9253 8.46496 16.3167 8.52068 15.6739C8.66211 14.011 10.1278 12.661 11.795 12.661ZM14.118 12.5366C14.6955 12.5366 15.1637 12.0684 15.1637 11.4909C15.1637 10.9134 14.6955 10.4452 14.118 10.4452C13.5404 10.4452 13.0723 10.9134 13.0723 11.4909C13.0723 12.0684 13.5404 12.5366 14.118 12.5366ZM16.4996 13.3727C16.4996 13.8343 16.1254 14.2084 15.6638 14.2084C15.2023 14.2084 14.8281 13.8343 14.8281 13.3727C14.8281 12.9111 15.2023 12.537 15.6638 12.537C16.1254 12.537 16.4996 12.9111 16.4996 13.3727ZM8.54571 13.3724C9.12324 13.3724 9.59143 12.9042 9.59143 12.3267C9.59143 11.7491 9.12324 11.2809 8.54571 11.2809C7.96818 11.2809 7.5 11.7491 7.5 12.3267C7.5 12.9042 7.96818 13.3724 8.54571 13.3724Z" fill="#FFF200"/>
</mask>
<g mask="url(#mask0_98_195248)">
<circle cx="36.3983" cy="2.81769" r="28.3377" fill="url(#paint1_linear_98_195248)"/>
</g>
<path fill-rule="evenodd" clip-rule="evenodd" d="M11.2635 12.0314C11.957 12.0314 12.5192 11.4692 12.5192 10.7757C12.5192 10.0822 11.957 9.52002 11.2635 9.52002C10.57 9.52002 10.0078 10.0822 10.0078 10.7757C10.0078 11.4692 10.57 12.0314 11.2635 12.0314ZM15.035 15.4001C14.7821 13.8872 13.3292 12.6572 11.795 12.6572C10.1278 12.6572 8.6621 14.0072 8.52068 15.6701C8.46496 16.3129 8.67068 16.9215 9.09496 17.3801C9.51496 17.8387 10.1064 18.0915 10.7492 18.0915H12.755C13.4792 18.0915 14.1135 17.8087 14.5464 17.2987C14.9792 16.7887 15.1507 16.1115 15.035 15.4001ZM15.1637 11.4871C15.1637 12.0647 14.6955 12.5328 14.118 12.5328C13.5404 12.5328 13.0723 12.0647 13.0723 11.4871C13.0723 10.9096 13.5404 10.4414 14.118 10.4414C14.6955 10.4414 15.1637 10.9096 15.1637 11.4871ZM15.6638 14.2046C16.1254 14.2046 16.4996 13.8305 16.4996 13.3689C16.4996 12.9074 16.1254 12.5332 15.6638 12.5332C15.2023 12.5332 14.8281 12.9074 14.8281 13.3689C14.8281 13.8305 15.2023 14.2046 15.6638 14.2046ZM9.59143 12.3229C9.59143 12.9004 9.12324 13.3686 8.54571 13.3686C7.96818 13.3686 7.5 12.9004 7.5 12.3229C7.5 11.7453 7.96818 11.2772 8.54571 11.2772C9.12324 11.2772 9.59143 11.7453 9.59143 12.3229Z" fill="black"/>
<defs>
<filter id="filter0_i_98_195248" x="2" y="2" width="20" height="20" filterUnits="userSpaceOnUse" color-interpolation-filters="sRGB">
<feFlood flood-opacity="0" result="BackgroundImageFix"/>
<feBlend mode="normal" in="SourceGraphic" in2="BackgroundImageFix" result="shape"/>
<feColorMatrix in="SourceAlpha" type="matrix" values="0 0 0 0 0 0 0 0 0 0 0 0 0 0 0 0 0 0 127 0" result="hardAlpha"/>
<feOffset dx="-0.5" dy="0.5"/>
<feComposite in2="hardAlpha" operator="arithmetic" k2="-1" k3="1"/>
<feColorMatrix type="matrix" values="0 0 0 0 1 0 0 0 0 1 0 0 0 0 1 0 0 0 0.99 0"/>
<feBlend mode="normal" in2="shape" result="effect1_innerShadow_98_195248"/>
</filter>
<linearGradient id="paint0_linear_98_195248" x1="17.2081" y1="3.26531" x2="6.27094" y2="20.9224" gradientUnits="userSpaceOnUse">
<stop stop-color="#FFB800"/>
<stop offset="0.45" stop-color="#FFF200"/>
<stop offset="1" stop-color="#FFB800"/>
</linearGradient>
<linearGradient id="paint1_linear_98_195248" x1="22.22" y1="15.7966" x2="13.6936" y2="7.521" gradientUnits="userSpaceOnUse">
<stop stop-color="#FFED01" stop-opacity="0"/>
<stop offset="1" stop-color="white"/>
</linearGradient>
</defs>
</svg>
