<svg width="24" height="24" viewBox="0 0 24 24" fill="none" xmlns="http://www.w3.org/2000/svg">
<g filter="url(#filter0_i_98_195246)">
<path fill-rule="evenodd" clip-rule="evenodd" d="M9.11336 2.73283C8.72283 2.34231 8.08967 2.34231 7.69914 2.73283L4.62743 5.80454C2.42583 7.44521 1 10.069 1 13.0257C1 17.9963 5.02944 22.0257 10 22.0257H14C18.9706 22.0257 23 17.9963 23 13.0257C23 10.1275 21.6301 7.54923 19.5024 5.90315L16.3321 2.73283C15.9416 2.34231 15.3084 2.34231 14.9179 2.73283L13.625 4.02573H10.4062L9.11336 2.73283ZM8.31912 9.41204V11.0716H9.97864V12.7311H8.31912V14.3907H6.65956V12.7311H5V11.0716H6.65956V9.41204H8.31912ZM15.4047 9.99772C15.4047 9.53059 15.7834 9.15186 16.2505 9.15186C16.7177 9.15186 17.0964 9.53059 17.0964 9.99772C17.0964 10.4648 16.7177 10.8436 16.2505 10.8436C15.7834 10.8436 15.4047 10.4648 15.4047 9.99772ZM14.3469 11.0555C14.8141 11.0555 15.1928 11.4341 15.1928 11.9013C15.1928 12.3684 14.8141 12.7472 14.3469 12.7472C13.8798 12.7472 13.5011 12.3684 13.5011 11.9013C13.5011 11.4342 13.8798 11.0555 14.3469 11.0555ZM15.4047 13.8049C15.4047 13.3378 15.7834 12.959 16.2505 12.959C16.7177 12.959 17.0964 13.3378 17.0964 13.8049C17.0964 14.272 16.7177 14.6508 16.2505 14.6508C15.7834 14.6508 15.4047 14.272 15.4047 13.8049ZM18.1541 11.0555C18.6213 11.0555 19 11.4341 19 11.9013C19 12.3684 18.6213 12.7472 18.1541 12.7472C17.687 12.7472 17.3083 12.3684 17.3083 11.9013C17.3083 11.4342 17.687 11.0555 18.1541 11.0555Z" fill="url(#paint0_linear_98_195246)"/>
</g>
<mask id="mask0_98_195246" style="mask-type:alpha" maskUnits="userSpaceOnUse" x="1" y="2" width="22" height="21">
<path fill-rule="evenodd" clip-rule="evenodd" d="M9.11336 2.73283C8.72283 2.34231 8.08967 2.34231 7.69914 2.73283L4.62743 5.80454C2.42583 7.44521 1 10.069 1 13.0257C1 17.9963 5.02944 22.0257 10 22.0257H14C18.9706 22.0257 23 17.9963 23 13.0257C23 10.1275 21.6301 7.54923 19.5024 5.90315L16.3321 2.73283C15.9416 2.34231 15.3084 2.34231 14.9179 2.73283L13.625 4.02573H10.4062L9.11336 2.73283ZM8.31912 9.41204V11.0716H9.97864V12.7311H8.31912V14.3907H6.65956V12.7311H5V11.0716H6.65956V9.41204H8.31912ZM15.4047 9.99772C15.4047 9.53059 15.7834 9.15186 16.2505 9.15186C16.7177 9.15186 17.0964 9.53059 17.0964 9.99772C17.0964 10.4648 16.7177 10.8436 16.2505 10.8436C15.7834 10.8436 15.4047 10.4648 15.4047 9.99772ZM14.3469 11.0555C14.8141 11.0555 15.1928 11.4341 15.1928 11.9013C15.1928 12.3684 14.8141 12.7472 14.3469 12.7472C13.8798 12.7472 13.5011 12.3684 13.5011 11.9013C13.5011 11.4342 13.8798 11.0555 14.3469 11.0555ZM15.4047 13.8049C15.4047 13.3378 15.7834 12.959 16.2505 12.959C16.7177 12.959 17.0964 13.3378 17.0964 13.8049C17.0964 14.272 16.7177 14.6508 16.2505 14.6508C15.7834 14.6508 15.4047 14.272 15.4047 13.8049ZM18.1541 11.0555C18.6213 11.0555 19 11.4341 19 11.9013C19 12.3684 18.6213 12.7472 18.1541 12.7472C17.687 12.7472 17.3083 12.3684 17.3083 11.9013C17.3083 11.4342 17.687 11.0555 18.1541 11.0555Z" fill="url(#paint1_linear_98_195246)"/>
</mask>
<g mask="url(#mask0_98_195246)">
<circle cx="36.3924" cy="2.81354" r="28.3377" fill="url(#paint2_linear_98_195246)"/>
</g>
<path fill-rule="evenodd" clip-rule="evenodd" d="M8.31912 11.0457V9.38616H6.65956V11.0457H5V12.7052H6.65956V14.3648H8.31912V12.7052H9.97864V11.0457H8.31912ZM16.2505 9.12598C15.7834 9.12598 15.4047 9.50471 15.4047 9.97184C15.4047 10.439 15.7834 10.8177 16.2505 10.8177C16.7177 10.8177 17.0964 10.439 17.0964 9.97184C17.0964 9.50471 16.7177 9.12598 16.2505 9.12598ZM15.1928 11.8754C15.1928 11.4083 14.8141 11.0296 14.3469 11.0296C13.8798 11.0296 13.5011 11.4083 13.5011 11.8754C13.5011 12.3426 13.8798 12.7213 14.3469 12.7213C14.8141 12.7213 15.1928 12.3426 15.1928 11.8754ZM16.2505 12.9332C15.7834 12.9332 15.4047 13.3119 15.4047 13.779C15.4047 14.2462 15.7834 14.6249 16.2505 14.6249C16.7177 14.6249 17.0964 14.2462 17.0964 13.779C17.0964 13.3119 16.7177 12.9332 16.2505 12.9332ZM19 11.8754C19 11.4083 18.6213 11.0296 18.1541 11.0296C17.687 11.0296 17.3083 11.4083 17.3083 11.8754C17.3083 12.3426 17.687 12.7213 18.1541 12.7213C18.6213 12.7213 19 12.3426 19 11.8754Z" fill="black"/>
<defs>
<filter id="filter0_i_98_195246" x="1" y="2.43994" width="22" height="19.5857" filterUnits="userSpaceOnUse" color-interpolation-filters="sRGB">
<feFlood flood-opacity="0" result="BackgroundImageFix"/>
<feBlend mode="normal" in="SourceGraphic" in2="BackgroundImageFix" result="shape"/>
<feColorMatrix in="SourceAlpha" type="matrix" values="0 0 0 0 0 0 0 0 0 0 0 0 0 0 0 0 0 0 127 0" result="hardAlpha"/>
<feOffset dx="-0.5" dy="0.5"/>
<feComposite in2="hardAlpha" operator="arithmetic" k2="-1" k3="1"/>
<feColorMatrix type="matrix" values="0 0 0 0 1 0 0 0 0 1 0 0 0 0 1 0 0 0 0.99 0"/>
<feBlend mode="normal" in2="shape" result="effect1_innerShadow_98_195246"/>
</filter>
<linearGradient id="paint0_linear_98_195246" x1="17.7289" y1="3.67905" x2="7.61169" y2="22.0257" gradientUnits="userSpaceOnUse">
<stop stop-color="#FFB800"/>
<stop offset="0.45" stop-color="#FFF200"/>
<stop offset="1" stop-color="#FFB800"/>
</linearGradient>
<linearGradient id="paint1_linear_98_195246" x1="17.7289" y1="3.67905" x2="7.61169" y2="22.0257" gradientUnits="userSpaceOnUse">
<stop stop-color="#FFB800"/>
<stop offset="0.45" stop-color="#FFF200"/>
<stop offset="1" stop-color="#FFB800"/>
</linearGradient>
<linearGradient id="paint2_linear_98_195246" x1="22.2141" y1="15.7925" x2="13.6877" y2="7.51685" gradientUnits="userSpaceOnUse">
<stop stop-color="#FFED01" stop-opacity="0"/>
<stop offset="1" stop-color="white"/>
</linearGradient>
</defs>
</svg>
