<svg width="24" height="24" viewBox="0 0 24 24" fill="none" xmlns="http://www.w3.org/2000/svg">
<path fill-rule="evenodd" clip-rule="evenodd" d="M11.9969 1.6875C13.1013 1.6875 20.376 5.88649 20.9277 6.84385C21.482 7.80207 21.482 16.1983 20.9277 17.1565C20.3734 18.1148 13.103 22.3129 11.9969 22.3129C10.8909 22.3129 3.61785 18.1148 3.06355 17.1565C2.51267 16.1983 2.51267 7.80207 3.06355 6.84385C3.61785 5.88649 10.8926 1.6875 11.9969 1.6875ZM14.625 7.50012H16.125C16.3324 7.50012 16.5 7.66812 16.5 7.87512V16.1251C16.5 16.3325 16.3324 16.5001 16.125 16.5001H14.625C14.4176 16.5001 14.25 16.3325 14.25 16.1251V7.87512C14.25 7.66812 14.4176 7.50012 14.625 7.50012ZM9.375 9.37512H7.875C7.668 9.37512 7.5 9.54312 7.5 9.75012V16.1251C7.5 16.3325 7.668 16.5001 7.875 16.5001H9.375C9.582 16.5001 9.75 16.3325 9.75 16.1251V9.75012C9.75 9.54312 9.582 9.37512 9.375 9.37512ZM12.75 11.6251H11.25C11.043 11.6251 10.875 11.7931 10.875 12.0001V16.1251C10.875 16.3325 11.043 16.5001 11.25 16.5001H12.75C12.9574 16.5001 13.125 16.3325 13.125 16.1251V12.0001C13.125 11.7931 12.9574 11.6251 12.75 11.6251Z" fill="#4D4D4D"/>
<path fill-rule="evenodd" clip-rule="evenodd" d="M11.9969 1.6875C13.1013 1.6875 20.376 5.88649 20.9277 6.84385C21.482 7.80207 21.482 16.1983 20.9277 17.1565C20.3734 18.1148 13.103 22.3129 11.9969 22.3129C10.8909 22.3129 3.61785 18.1148 3.06355 17.1565C2.51267 16.1983 2.51267 7.80207 3.06355 6.84385C3.61785 5.88649 10.8926 1.6875 11.9969 1.6875ZM14.625 7.50012H16.125C16.3324 7.50012 16.5 7.66812 16.5 7.87512V16.1251C16.5 16.3325 16.3324 16.5001 16.125 16.5001H14.625C14.4176 16.5001 14.25 16.3325 14.25 16.1251V7.87512C14.25 7.66812 14.4176 7.50012 14.625 7.50012ZM9.375 9.37512H7.875C7.668 9.37512 7.5 9.54312 7.5 9.75012V16.1251C7.5 16.3325 7.668 16.5001 7.875 16.5001H9.375C9.582 16.5001 9.75 16.3325 9.75 16.1251V9.75012C9.75 9.54312 9.582 9.37512 9.375 9.37512ZM12.75 11.6251H11.25C11.043 11.6251 10.875 11.7931 10.875 12.0001V16.1251C10.875 16.3325 11.043 16.5001 11.25 16.5001H12.75C12.9574 16.5001 13.125 16.3325 13.125 16.1251V12.0001C13.125 11.7931 12.9574 11.6251 12.75 11.6251Z" fill="url(#paint0_linear_98_195247)"/>
<g filter="url(#filter0_i_98_195247)">
<mask id="mask0_98_195247" style="mask-type:alpha" maskUnits="userSpaceOnUse" x="2" y="1" width="20" height="22">
<path fill-rule="evenodd" clip-rule="evenodd" d="M11.9969 1.6875C13.1013 1.6875 20.376 5.88649 20.9277 6.84385C21.482 7.80207 21.482 16.1983 20.9277 17.1565C20.3734 18.1148 13.103 22.3129 11.9969 22.3129C10.8909 22.3129 3.61785 18.1148 3.06355 17.1565C2.51267 16.1983 2.51267 7.80207 3.06355 6.84385C3.61785 5.88649 10.8926 1.6875 11.9969 1.6875ZM14.625 7.50012H16.125C16.3324 7.50012 16.5 7.66812 16.5 7.87512V16.1251C16.5 16.3325 16.3324 16.5001 16.125 16.5001H14.625C14.4176 16.5001 14.25 16.3325 14.25 16.1251V7.87512C14.25 7.66812 14.4176 7.50012 14.625 7.50012ZM9.375 9.37512H7.875C7.668 9.37512 7.5 9.54312 7.5 9.75012V16.1251C7.5 16.3325 7.668 16.5001 7.875 16.5001H9.375C9.582 16.5001 9.75 16.3325 9.75 16.1251V9.75012C9.75 9.54312 9.582 9.37512 9.375 9.37512ZM12.75 11.6251H11.25C11.043 11.6251 10.875 11.7931 10.875 12.0001V16.1251C10.875 16.3325 11.043 16.5001 11.25 16.5001H12.75C12.9574 16.5001 13.125 16.3325 13.125 16.1251V12.0001C13.125 11.7931 12.9574 11.6251 12.75 11.6251Z" fill="#4D4D4D"/>
<path fill-rule="evenodd" clip-rule="evenodd" d="M11.9969 1.6875C13.1013 1.6875 20.376 5.88649 20.9277 6.84385C21.482 7.80207 21.482 16.1983 20.9277 17.1565C20.3734 18.1148 13.103 22.3129 11.9969 22.3129C10.8909 22.3129 3.61785 18.1148 3.06355 17.1565C2.51267 16.1983 2.51267 7.80207 3.06355 6.84385C3.61785 5.88649 10.8926 1.6875 11.9969 1.6875ZM14.625 7.50012H16.125C16.3324 7.50012 16.5 7.66812 16.5 7.87512V16.1251C16.5 16.3325 16.3324 16.5001 16.125 16.5001H14.625C14.4176 16.5001 14.25 16.3325 14.25 16.1251V7.87512C14.25 7.66812 14.4176 7.50012 14.625 7.50012ZM9.375 9.37512H7.875C7.668 9.37512 7.5 9.54312 7.5 9.75012V16.1251C7.5 16.3325 7.668 16.5001 7.875 16.5001H9.375C9.582 16.5001 9.75 16.3325 9.75 16.1251V9.75012C9.75 9.54312 9.582 9.37512 9.375 9.37512ZM12.75 11.6251H11.25C11.043 11.6251 10.875 11.7931 10.875 12.0001V16.1251C10.875 16.3325 11.043 16.5001 11.25 16.5001H12.75C12.9574 16.5001 13.125 16.3325 13.125 16.1251V12.0001C13.125 11.7931 12.9574 11.6251 12.75 11.6251Z" fill="url(#paint1_linear_98_195247)"/>
</mask>
<g mask="url(#mask0_98_195247)">
<circle cx="36.3983" cy="2.81793" r="28.3377" fill="url(#paint2_linear_98_195247)"/>
</g>
</g>
<path d="M9.375 9.375H7.875C7.668 9.375 7.5 9.543 7.5 9.75V16.125C7.5 16.3324 7.668 16.5 7.875 16.5H9.375C9.582 16.5 9.75 16.3324 9.75 16.125V9.75C9.75 9.543 9.582 9.375 9.375 9.375Z" fill="black"/>
<path d="M12.75 11.625H11.25C11.043 11.625 10.875 11.793 10.875 12V16.125C10.875 16.3324 11.043 16.5 11.25 16.5H12.75C12.9574 16.5 13.125 16.3324 13.125 16.125V12C13.125 11.793 12.9574 11.625 12.75 11.625Z" fill="black"/>
<path d="M16.125 7.5H14.625C14.4176 7.5 14.25 7.668 14.25 7.875V16.125C14.25 16.3324 14.4176 16.5 14.625 16.5H16.125C16.3324 16.5 16.5 16.3324 16.5 16.125V7.875C16.5 7.668 16.3324 7.5 16.125 7.5Z" fill="black"/>
<defs>
<filter id="filter0_i_98_195247" x="8.06055" y="1.6875" width="13.283" height="20.6255" filterUnits="userSpaceOnUse" color-interpolation-filters="sRGB">
<feFlood flood-opacity="0" result="BackgroundImageFix"/>
<feBlend mode="normal" in="SourceGraphic" in2="BackgroundImageFix" result="shape"/>
<feColorMatrix in="SourceAlpha" type="matrix" values="0 0 0 0 0 0 0 0 0 0 0 0 0 0 0 0 0 0 127 0" result="hardAlpha"/>
<feOffset dx="-0.5" dy="0.5"/>
<feComposite in2="hardAlpha" operator="arithmetic" k2="-1" k3="1"/>
<feColorMatrix type="matrix" values="0 0 0 0 1 0 0 0 0 1 0 0 0 0 1 0 0 0 0.99 0"/>
<feBlend mode="normal" in2="shape" result="effect1_innerShadow_98_195247"/>
</filter>
<linearGradient id="paint0_linear_98_195247" x1="16.8647" y1="2.99238" x2="5.12723" y2="20.1662" gradientUnits="userSpaceOnUse">
<stop stop-color="#FFB800"/>
<stop offset="0.45" stop-color="#FFF200"/>
<stop offset="1" stop-color="#FFB800"/>
</linearGradient>
<linearGradient id="paint1_linear_98_195247" x1="16.8647" y1="2.99238" x2="5.12723" y2="20.1662" gradientUnits="userSpaceOnUse">
<stop stop-color="#FFB800"/>
<stop offset="0.45" stop-color="#FFF200"/>
<stop offset="1" stop-color="#FFB800"/>
</linearGradient>
<linearGradient id="paint2_linear_98_195247" x1="22.22" y1="15.7969" x2="13.6936" y2="7.52125" gradientUnits="userSpaceOnUse">
<stop stop-color="#FFED01" stop-opacity="0"/>
<stop offset="1" stop-color="white"/>
</linearGradient>
</defs>
</svg>
