<svg width="24" height="24" viewBox="0 0 24 24" fill="none" xmlns="http://www.w3.org/2000/svg">
<path d="M21.5026 7.11359C21.2536 6.94546 20.948 6.88311 20.6531 6.94025C20.3581 6.99739 20.098 7.16935 19.9298 7.41831C18.9922 8.8079 17.7534 9.95527 16.3505 10.7362C14.9781 11.5003 13.476 11.8973 12.0091 11.8887H11.938C10.4879 11.8887 9.00802 11.4906 7.65203 10.7362C6.24877 9.95488 5.01115 8.80751 4.07278 7.41792C3.98947 7.29464 3.88268 7.18898 3.75853 7.10696C3.63438 7.02495 3.49529 6.96819 3.34921 6.93993C3.20312 6.91167 3.0529 6.91247 2.90712 6.94226C2.76135 6.97206 2.62286 7.03028 2.49958 7.11359C2.3763 7.19691 2.27064 7.30369 2.18863 7.42784C2.10661 7.55199 2.04986 7.69108 2.0216 7.83716C1.99334 7.98325 1.99413 8.13347 2.02393 8.27925C2.05372 8.42503 2.11194 8.56351 2.19526 8.68679C3.10434 10.0369 4.25914 11.204 5.59949 12.1274L4.33765 14.2143C4.18224 14.4714 4.13534 14.7798 4.20729 15.0715C4.27923 15.3633 4.46412 15.6145 4.72128 15.7699C4.97844 15.9253 5.28681 15.9722 5.57854 15.9003C5.87028 15.8283 6.12149 15.6434 6.2769 15.3863L7.5825 13.2267C8.03843 13.4251 8.50678 13.5937 8.98458 13.7314L8.58298 15.7238C8.52361 16.0184 8.58369 16.3244 8.75 16.5747C8.91631 16.825 9.17522 16.9989 9.46979 17.0583C9.76435 17.1177 10.0704 17.0576 10.3207 16.8913C10.571 16.725 10.7449 16.4661 10.8043 16.1715L11.2157 14.1295C11.4568 14.1462 11.6979 14.1548 11.9388 14.1553H12.0642C12.3048 14.1553 12.5459 14.1467 12.7873 14.1295L13.1987 16.1715C13.2281 16.3174 13.2859 16.456 13.3689 16.5795C13.4518 16.703 13.5583 16.8089 13.6823 16.8913C13.8062 16.9736 13.9451 17.0308 14.0911 17.0594C14.2371 17.0881 14.3873 17.0877 14.5332 17.0583C14.679 17.0289 14.8177 16.9711 14.9412 16.8881C15.0647 16.8051 15.1706 16.6986 15.253 16.5747C15.3353 16.4508 15.3924 16.3119 15.4211 16.1659C15.4497 16.0199 15.4494 15.8697 15.42 15.7238L15.0184 13.7314C15.4962 13.5938 15.9646 13.425 16.4205 13.2263L17.7261 15.3863C17.8815 15.6434 18.1327 15.8283 18.4244 15.9003C18.7161 15.9722 19.0245 15.9253 19.2817 15.7699C19.5388 15.6145 19.7237 15.3633 19.7957 15.0715C19.8676 14.7798 19.8207 14.4714 19.6653 14.2143L18.4039 12.1274C19.7436 11.2038 20.8978 10.0367 21.8065 8.68679C21.8899 8.56354 21.9481 8.42508 21.978 8.27931C22.0078 8.13354 22.0086 7.98333 21.9804 7.83724C21.9522 7.69115 21.8955 7.55205 21.8135 7.42789C21.7315 7.30373 21.6259 7.19693 21.5026 7.11359Z" fill="black"/>
</svg>
