<svg width="24" height="24" viewBox="0 0 24 24" fill="none" xmlns="http://www.w3.org/2000/svg">
<path fill-rule="evenodd" clip-rule="evenodd" d="M12 5.15285C16.0851 5.12492 20.1702 7.35932 22.747 11.1754C22.9119 11.4188 23 11.706 23 12C23 12.294 22.9119 12.5812 22.747 12.8246C20.1702 16.6407 16.0851 18.8751 12 18.8471C7.91491 18.8751 3.82983 16.6407 1.25296 12.8246C1.08811 12.5812 1 12.294 1 12C1 11.706 1.08811 11.4188 1.25296 11.1754C3.82983 7.35932 7.91491 5.12492 12 5.15285ZM9.42798 15.8493C10.1893 16.358 11.0844 16.6295 12 16.6295C13.2278 16.6295 14.4054 16.1417 15.2736 15.2735C16.1418 14.4053 16.6295 13.2278 16.6295 12C16.6295 11.0844 16.358 10.1893 15.8493 9.42798C15.3406 8.66666 14.6176 8.07328 13.7716 7.72289C12.9257 7.37249 11.9949 7.28081 11.0968 7.45944C10.1988 7.63807 9.37389 8.07899 8.72644 8.72644C8.079 9.37389 7.63808 10.1988 7.45945 11.0968C7.28082 11.9949 7.3725 12.9257 7.72289 13.7716C8.07329 14.6176 8.66667 15.3406 9.42798 15.8493ZM12 15C13.6569 15 15 13.6569 15 12C15 10.3431 13.6569 9 12 9C10.3431 9 9 10.3431 9 12C9 13.6569 10.3431 15 12 15Z" fill="black"/>
</svg>
