<svg width="24" height="24" viewBox="0 0 24 24" fill="none" xmlns="http://www.w3.org/2000/svg">
<path d="M7.61998 6.20695C8.8103 5.25458 10.2554 4.5 11.9988 4.5C16.1409 4.5 19.4988 7.85786 19.4988 12C19.4988 16.1421 16.1409 19.5 11.9988 19.5C8.7439 19.5 5.97077 17.4254 4.93417 14.5256C4.74827 14.0055 4.22379 13.6568 3.6835 13.7713L2.70523 13.9787C2.16494 14.0932 1.81516 14.6262 1.98086 15.1531C3.32009 19.4112 7.29722 22.5 11.9988 22.5C17.7977 22.5 22.4988 17.799 22.4988 12C22.4988 6.20101 17.7977 1.5 11.9988 1.5C9.21529 1.5 7.04717 2.76845 5.48759 4.07458L3.70591 2.29289C3.41991 2.00689 2.98979 1.92134 2.61612 2.07612C2.24244 2.2309 1.9988 2.59554 1.9988 3V8.5C1.9988 9.05228 2.44652 9.5 2.9988 9.5H8.4988C8.90326 9.5 9.26791 9.25636 9.42269 8.88268C9.57747 8.50901 9.49191 8.07889 9.20591 7.79289L7.61998 6.20695Z" fill="black"/>
</svg>
