<svg width="24" height="24" viewBox="0 0 24 24" fill="none" xmlns="http://www.w3.org/2000/svg">
<path fill-rule="evenodd" clip-rule="evenodd" d="M17.8814 14.7572C17.0985 16.0263 16.0264 17.0984 14.7571 17.8815L19.2287 22.3531C20.0914 23.2158 21.4901 23.2158 22.3528 22.3531C23.2155 21.4904 23.2157 20.0915 22.353 19.2288L17.8814 14.7572ZM9.7611 1.00012C4.92572 1.00012 1 4.92584 1 9.76122C1 14.5966 4.92572 18.5223 9.7611 18.5223C14.5965 18.5223 18.5221 14.5966 18.5221 9.76122C18.5221 4.92584 14.5965 1.00012 9.7611 1.00012ZM9.7611 4.01327C12.9334 4.01327 15.509 6.58883 15.509 9.76122C15.509 12.9336 12.9334 15.5091 9.7611 15.5091C6.5887 15.5091 4.01315 12.9336 4.01315 9.76122C4.01315 6.58883 6.5887 4.01327 9.7611 4.01327Z" fill="black"/>
</svg>
