<svg width="24" height="24" viewBox="0 0 24 24" fill="none" xmlns="http://www.w3.org/2000/svg">
<path d="M2.36824 21.6323C2.00328 21.6323 1.65329 21.4873 1.39522 21.2293C1.13717 20.9712 0.992188 20.6212 0.992188 20.2563C0.992188 19.8913 1.13717 19.5413 1.39522 19.2832C1.65329 19.0252 2.00328 18.8802 2.36824 18.8802H17.5048C17.8698 18.8802 18.2198 19.0252 18.4778 19.2832C18.7359 19.5413 18.8809 19.8913 18.8809 20.2563C18.8809 20.6212 18.7359 20.9712 18.4778 21.2293C18.2198 21.4873 17.8698 21.6323 17.5048 21.6323H2.36824ZM2.36824 16.1281C2.00328 16.1281 1.65329 15.9831 1.39522 15.7251C1.13717 15.467 0.992188 15.117 0.992188 14.7521C0.992188 14.3871 1.13717 14.0371 1.39522 13.779C1.65329 13.521 2.00328 13.376 2.36824 13.376H12.0006C12.3656 13.376 12.7156 13.521 12.9736 13.779C13.2316 14.0371 13.3767 14.3871 13.3767 14.7521C13.3767 15.117 13.2316 15.467 12.9736 15.7251C12.7156 15.9831 12.3656 16.1281 12.0006 16.1281H2.36824ZM2.36824 10.6239C2.00328 10.6239 1.65329 10.4789 1.39522 10.2208C1.13717 9.96283 0.992188 9.61276 0.992188 9.24783C0.992188 8.8829 1.13717 8.53284 1.39522 8.27483C1.65329 8.01682 2.00328 7.87178 2.36824 7.87178H7.87246C8.23742 7.87178 8.58742 8.01682 8.84548 8.27483C9.10353 8.53284 9.24851 8.8829 9.24851 9.24783C9.24851 9.61276 9.10353 9.96283 8.84548 10.2208C8.58742 10.4789 8.23742 10.6239 7.87246 10.6239H2.36824ZM18.8809 14.7521C18.8809 15.117 18.7359 15.467 18.4778 15.7251C18.2198 15.9831 17.8698 16.1281 17.5048 16.1281C17.1399 16.1281 16.7898 15.9831 16.5318 15.7251C16.2738 15.467 16.1288 15.117 16.1288 14.7521V7.06541L14.3495 8.84465C14.09 9.09537 13.7424 9.23407 13.3816 9.23091C13.0208 9.22774 12.6757 9.08298 12.4206 8.82786C12.1655 8.57274 12.0207 8.22763 12.0175 7.86683C12.0144 7.50602 12.1531 7.15843 12.4038 6.89891L16.532 2.77074C16.79 2.51273 17.1399 2.36784 17.5048 2.36784C17.8698 2.36784 18.2197 2.51273 18.4777 2.77074L22.6059 6.89891C22.8566 7.15843 22.9953 7.50602 22.9921 7.86683C22.989 8.22763 22.8442 8.57274 22.5891 8.82786C22.334 9.08298 21.9889 9.22774 21.6281 9.23091C21.2673 9.23407 20.9197 9.09537 20.6601 8.84465L18.8809 7.06541V14.7521Z" fill="black"/>
</svg>
