<svg width="24" height="24" viewBox="0 0 24 24" fill="none" xmlns="http://www.w3.org/2000/svg">
<path d="M2.36824 2.36768C2.00328 2.36768 1.65329 2.51266 1.39522 2.77071C1.13717 3.02877 0.992188 3.37877 0.992188 3.74373C0.992188 4.10869 1.13717 4.45869 1.39522 4.71675C1.65329 4.9748 2.00328 5.11978 2.36824 5.11978H17.5048C17.8698 5.11978 18.2198 4.9748 18.4778 4.71675C18.7359 4.45869 18.8809 4.10869 18.8809 3.74373C18.8809 3.37877 18.7359 3.02877 18.4778 2.77071C18.2198 2.51266 17.8698 2.36768 17.5048 2.36768H2.36824ZM2.36824 7.87189C2.00328 7.87189 1.65329 8.01688 1.39522 8.27493C1.13717 8.53299 0.992188 8.88299 0.992188 9.24795C0.992188 9.61291 1.13717 9.96291 1.39522 10.221C1.65329 10.479 2.00328 10.624 2.36824 10.624H12.0006C12.3656 10.624 12.7156 10.479 12.9736 10.221C13.2316 9.96291 13.3767 9.61291 13.3767 9.24795C13.3767 8.88299 13.2316 8.53299 12.9736 8.27493C12.7156 8.01688 12.3656 7.87189 12.0006 7.87189H2.36824ZM2.36824 13.3761C2.00328 13.3761 1.65329 13.5211 1.39522 13.7792C1.13717 14.0372 0.992188 14.3872 0.992188 14.7522C0.992188 15.1171 1.13717 15.4672 1.39522 15.7252C1.65329 15.9832 2.00328 16.1282 2.36824 16.1282H7.87246C8.23742 16.1282 8.58742 15.9832 8.84548 15.7252C9.10353 15.4672 9.24851 15.1171 9.24851 14.7522C9.24851 14.3872 9.10353 14.0372 8.84548 13.7792C8.58742 13.5211 8.23742 13.3761 7.87246 13.3761H2.36824ZM18.8809 9.24795C18.8809 8.88299 18.7359 8.53299 18.4778 8.27493C18.2198 8.01688 17.8698 7.87189 17.5048 7.87189C17.1399 7.87189 16.7898 8.01688 16.5318 8.27493C16.2738 8.53299 16.1288 8.88299 16.1288 9.24795V16.9346L14.3495 15.1554C14.09 14.9046 13.7424 14.7659 13.3816 14.7691C13.0208 14.7723 12.6757 14.917 12.4206 15.1721C12.1655 15.4273 12.0207 15.7724 12.0175 16.1332C12.0144 16.494 12.1531 16.8416 12.4038 17.1011L16.532 21.2293C16.79 21.4873 17.1399 21.6322 17.5048 21.6322C17.8698 21.6322 18.2197 21.4873 18.4777 21.2293L22.6059 17.1011C22.8566 16.8416 22.9953 16.494 22.9921 16.1332C22.989 15.7724 22.8442 15.4273 22.5891 15.1721C22.334 14.917 21.9889 14.7723 21.6281 14.7691C21.2673 14.7659 20.9197 14.9046 20.6601 15.1554L18.8809 16.9346V9.24795Z" fill="black"/>
</svg>
