<svg width="24" height="24" viewBox="0 0 24 24" fill="none" xmlns="http://www.w3.org/2000/svg">
<path d="M2.36824 21.6322C2.00328 21.6322 1.65329 21.4872 1.39522 21.2292C1.13717 20.9711 0.992188 20.6211 0.992188 20.2561C0.992188 19.8912 1.13717 19.5412 1.39522 19.2831C1.65329 19.0251 2.00328 18.8801 2.36824 18.8801H17.5048C17.8698 18.8801 18.2198 19.0251 18.4778 19.2831C18.7359 19.5412 18.8809 19.8912 18.8809 20.2561C18.8809 20.6211 18.7359 20.9711 18.4778 21.2292C18.2198 21.4872 17.8698 21.6322 17.5048 21.6322H2.36824ZM2.36824 16.128C2.00328 16.128 1.65329 15.983 1.39522 15.725C1.13717 15.4669 0.992188 15.1169 0.992188 14.7519C0.992188 14.387 1.13717 14.037 1.39522 13.7789C1.65329 13.5209 2.00328 13.3759 2.36824 13.3759H12.0006C12.3656 13.3759 12.7156 13.5209 12.9736 13.7789C13.2316 14.037 13.3767 14.387 13.3767 14.7519C13.3767 15.1169 13.2316 15.4669 12.9736 15.725C12.7156 15.983 12.3656 16.128 12.0006 16.128H2.36824ZM2.36824 10.6238C2.00328 10.6238 1.65329 10.4787 1.39522 10.2207C1.13717 9.96271 0.992188 9.61264 0.992188 9.24771C0.992188 8.88278 1.13717 8.53271 1.39522 8.2747C1.65329 8.01669 2.00328 7.87166 2.36824 7.87166H7.87246C8.23742 7.87166 8.58742 8.01669 8.84548 8.2747C9.10353 8.53271 9.24851 8.88278 9.24851 9.24771C9.24851 9.61264 9.10353 9.96271 8.84548 10.2207C8.58742 10.4787 8.23742 10.6238 7.87246 10.6238H2.36824ZM18.8809 14.7519C18.8809 15.1169 18.7359 15.4669 18.4778 15.725C18.2198 15.983 17.8698 16.128 17.5048 16.128C17.1399 16.128 16.7898 15.983 16.5318 15.725C16.2738 15.4669 16.1288 15.1169 16.1288 14.7519V7.06529L14.3495 8.84453C14.09 9.09524 13.7424 9.23395 13.3816 9.23079C13.0208 9.22762 12.6757 9.08286 12.4206 8.82774C12.1655 8.57262 12.0207 8.2275 12.0175 7.8667C12.0144 7.5059 12.1531 7.15831 12.4038 6.89879L16.532 2.77062C16.79 2.51261 17.1399 2.36771 17.5048 2.36771C17.8698 2.36771 18.2197 2.51261 18.4777 2.77062L22.6059 6.89879C22.8566 7.15831 22.9953 7.5059 22.9921 7.8667C22.989 8.2275 22.8442 8.57262 22.5891 8.82774C22.334 9.08286 21.9889 9.22762 21.6281 9.23079C21.2673 9.23395 20.9197 9.09524 20.6601 8.84453L18.8809 7.06529V14.7519Z" fill="black"/>
</svg>
