<svg width="24" height="24" viewBox="0 0 24 24" fill="none" xmlns="http://www.w3.org/2000/svg">
<path fill-rule="evenodd" clip-rule="evenodd" d="M1 12C1 5.92486 5.92486 1 12 1C18.0751 1 23 5.92486 23 12C23 18.0751 18.0751 23 12 23C5.92486 23 1 18.0751 1 12ZM14.0022 11.539C13.6417 11.8995 13.0572 11.8995 12.6967 11.539C12.3363 11.1785 12.3363 10.5941 12.6967 10.2335L13.4581 9.47228H8.76923C8.25943 9.47228 7.84615 9.88555 7.84615 10.3954V11.0771C7.84615 11.587 7.43287 12.0002 6.92308 12.0002C6.41328 12.0002 6 11.587 6 11.0771V10.3954C6 8.86594 7.23983 7.62612 8.76923 7.62612H13.4648L12.6967 6.85802C12.3363 6.49753 12.3363 5.91308 12.6967 5.55259C13.0572 5.19211 13.6417 5.19211 14.0022 5.55259L16.3427 7.89309C16.7032 8.25356 16.7032 8.83803 16.3427 9.19851L14.0022 11.539ZM9.99729 18.4482C10.3578 18.8087 10.9422 18.8087 11.3027 18.4482C11.6632 18.0876 11.6632 17.5032 11.3027 17.1428L10.537 16.377H15.2308C16.7602 16.377 18 15.1372 18 13.6078V12.9233C18 12.4135 17.5867 12.0002 17.0769 12.0002C16.5671 12.0002 16.1538 12.4135 16.1538 12.9233V13.6078C16.1538 14.1176 15.7406 14.5308 15.2308 14.5308H10.539L11.3027 13.7672C11.6632 13.4067 11.6632 12.8222 11.3027 12.4618C10.9422 12.1013 10.3578 12.1013 9.99729 12.4618L7.65678 14.8022C7.2963 15.1628 7.2963 15.7472 7.65678 16.1076L9.99729 18.4482Z" fill="black"/>
</svg>
