<svg width="24" height="24" viewBox="0 0 24 24" fill="none" xmlns="http://www.w3.org/2000/svg">
<g clip-path="url(#clip0_98_195279)">
<path fill-rule="evenodd" clip-rule="evenodd" d="M10.154 0.0615894C10.0719 -0.0205297 9.93875 -0.0205298 9.85663 0.0615892L7.90758 2.01064C6.68963 2.9204 5.90113 4.37337 5.90113 6.0105C5.90113 8.76604 8.13494 10.9998 10.8905 10.9998H13.108C15.8635 10.9998 18.0973 8.76604 18.0973 6.0105C18.0973 4.39537 17.3299 2.95949 16.1397 2.04762L14.1537 0.0615894C14.0716 -0.0205297 13.9385 -0.0205298 13.8563 0.0615892L12.8968 1.02116H11.1136L10.154 0.0615894ZM3.47876 15.0504C3.41158 14.9832 3.30265 14.9832 3.23547 15.0504L1.63762 16.6482C0.643407 17.3927 0 18.58 0 19.9177C0 22.172 1.8275 23.9995 4.08183 23.9995H5.89598C8.15031 23.9995 9.9778 22.172 9.9778 19.9177C9.9778 18.596 9.3497 17.4211 8.37571 16.6751L6.75096 15.0504C6.68377 14.9832 6.57485 14.9832 6.50767 15.0504L5.72222 15.8358H5.5V13.5C5.5 13.2239 5.72386 13 6 13H18C18.2761 13 18.5 13.2239 18.5 13.5V15.8358H18.2642L17.4788 15.0504C17.4116 14.9832 17.3027 14.9832 17.2355 15.0504L15.6376 16.6482C14.6434 17.3927 14 18.58 14 19.9177C14 22.172 15.8275 23.9995 18.0818 23.9995H19.896C22.1503 23.9995 23.9778 22.172 23.9778 19.9177C23.9778 18.596 23.3497 17.4211 22.3757 16.6751L20.751 15.0504C20.6838 14.9832 20.5748 14.9832 20.5077 15.0504L19.7222 15.8358H19.5V13.5C19.5 12.6716 18.8284 12 18 12H12.5V10.9999H11.5V12H6C5.17157 12 4.5 12.6716 4.5 13.5V15.8358H4.26421L3.47876 15.0504Z" fill="black"/>
</g>
<defs>
<clipPath id="clip0_98_195279">
<rect width="24" height="24" fill="white"/>
</clipPath>
</defs>
</svg>
