
<svg width="24" height="24" viewBox="0 0 24 24" fill="none" xmlns="http://www.w3.org/2000/svg">
<path fill-rule="evenodd" clip-rule="evenodd" d="M12.3312 7.69107C12.1481 7.87411 11.8513 7.87411 11.6682 7.69107L10.1214 6.14424C9.93834 5.96116 9.93834 5.66436 10.1214 5.48132L11.8665 3.73624C14.1817 1.42125 17.9485 1.42125 20.2637 3.73624C22.5788 6.05128 22.5788 9.81806 20.2637 12.1331L18.5185 13.8782C18.3354 14.0612 18.0386 14.0612 17.8556 13.8782L16.3087 12.3314C16.1257 12.1483 16.1257 11.8515 16.3087 11.6685L18.0539 9.92342C19.1505 8.82683 19.1505 7.04259 18.0539 5.946C16.9572 4.8494 15.1729 4.84932 14.0763 5.946L12.3312 7.69107ZM2.71028 4.95054C2.09696 4.33723 2.09696 3.34286 2.71029 2.72955C3.32362 2.11624 4.31802 2.11624 4.93135 2.72955L21.2653 19.063C21.8786 19.6763 21.8786 20.6707 21.2653 21.284C20.652 21.8973 19.6576 21.8973 19.0442 21.284L2.71028 4.95054ZM13.8786 17.8557C14.0616 18.0388 14.0616 18.3356 13.8786 18.5186L12.1335 20.2637C9.81843 22.5786 6.05153 22.5788 3.7363 20.2637C1.42123 17.9487 1.42123 14.1819 3.7363 11.8669L5.48147 10.1218C5.66451 9.93871 5.96132 9.93871 6.14441 10.1218L7.69125 11.6685C7.8743 11.8516 7.8743 12.1484 7.69125 12.3315L5.94608 14.0765C4.84949 15.1731 4.84949 16.9574 5.94608 18.054C7.04267 19.1505 8.827 19.1506 9.92367 18.054L11.6688 16.3089C11.8518 16.1259 12.1487 16.1259 12.3317 16.3089L13.8786 17.8557Z" fill="black"/>
</svg>
