<svg width="24" height="24" viewBox="0 0 24 24" fill="none" xmlns="http://www.w3.org/2000/svg">
<path d="M22.5535 17.5259L14.7733 3.20271C14.1861 2.21417 13.149 1.62378 11.9992 1.62378C10.8493 1.62378 9.81224 2.21417 9.22503 3.20271C9.2206 3.21027 9.21686 3.21784 9.21244 3.2254L1.45811 17.5032C0.858307 18.5126 0.846963 19.7248 1.42721 20.7455C2.0088 21.7668 3.05655 22.3761 4.23162 22.3761H19.7238C20.8988 22.3761 21.9896 21.7668 22.5712 20.7455C23.1514 19.7248 23.1401 18.5126 22.5535 17.5259ZM10.7088 8.18207C10.7088 7.46939 11.2865 6.89172 11.9992 6.89172C12.7119 6.89172 13.2895 7.46943 13.2895 8.18207V13.3435C13.2895 14.0561 12.7118 14.6339 11.9992 14.6339C11.2865 14.6339 10.7088 14.0561 10.7088 13.3435V8.18207ZM11.9992 19.7954C10.9319 19.7954 10.0636 18.9272 10.0636 17.8598C10.0636 16.7925 10.9318 15.9243 11.9992 15.9243C13.0665 15.9243 13.9347 16.7925 13.9347 17.8598C13.9348 18.9271 13.0665 19.7954 11.9992 19.7954Z" fill="black"/>
</svg>
