<svg width="24" height="24" viewBox="0 0 24 24" fill="none" xmlns="http://www.w3.org/2000/svg">
<path fill-rule="evenodd" clip-rule="evenodd" d="M1 12C1 5.92508 5.92508 1 12 1C18.0749 1 23 5.92508 23 12C23 18.0749 18.0749 23 12 23C5.92508 23 1 18.0749 1 12ZM7.92238 16.7008C8.35195 17.1304 9.04844 17.1304 9.47801 16.7008L12.3116 13.8673L15.1453 16.701C15.5748 17.1306 16.2713 17.1306 16.7009 16.701C17.1305 16.2714 17.1305 15.5749 16.7009 15.1454L13.8672 12.3116L16.7009 9.47794C17.1305 9.04836 17.1305 8.35188 16.7009 7.92231C16.2713 7.49273 15.5748 7.49273 15.1453 7.92231L12.3116 10.756L9.47801 7.92247C9.04844 7.49289 8.35195 7.49289 7.92238 7.92247C7.4928 8.35205 7.4928 9.04853 7.92238 9.47811L10.7559 12.3116L7.92238 15.1452C7.4928 15.5748 7.4928 16.2712 7.92238 16.7008Z" fill="black"/>
</svg>
