<svg width="375" height="126" viewBox="0 0 375 126" fill="none" xmlns="http://www.w3.org/2000/svg">
<path fill-rule="evenodd" clip-rule="evenodd" d="M0 0.173443V20.4492C5.33703 20.0313 10.8062 21.6551 15.3672 25.3226C29.5607 36.7356 48.9117 36.848 63.1039 25.1576C70.9754 18.6738 81.6534 18.605 89.5903 24.9871L90.0007 25.3172C104.356 36.8606 123.641 36.8606 137.996 25.3172L138.407 24.9871C146.344 18.605 157.022 18.6738 164.893 25.1576C179.028 36.8006 198.202 36.9241 212.454 25.4639L212.865 25.1339C220.967 18.619 231.851 18.619 239.953 25.1338L240.363 25.4639C254.615 36.924 273.789 36.8006 287.924 25.1576C295.796 18.6738 306.474 18.605 314.41 24.9871L314.968 25.4357C329.238 36.9104 348.423 36.8492 362.635 25.2835C366.341 22.2674 370.649 20.6506 375 20.4313V0.17257C366.952 0.399463 358.949 3.29895 352.098 8.87461C344.144 15.3472 333.408 15.3814 325.422 8.95981L324.864 8.51117C317.826 2.85174 309.588 0.0172608 301.348 0H301.197C292.802 0.0175858 284.415 2.95946 277.303 8.81746C269.432 15.3013 258.754 15.3701 250.817 8.98801L250.407 8.65794C236.051 -2.88548 216.766 -2.88545 202.411 8.65795L202 8.98803C194.063 15.3701 183.385 15.3013 175.514 8.81746C168.401 2.95849 160.012 0.0166108 151.616 0H151.473C143.233 0.0163039 134.992 2.85079 127.953 8.51118L127.543 8.84126C119.441 15.3561 108.557 15.3561 100.455 8.84125L100.044 8.51117C93.006 2.85174 84.7674 0.0172608 76.5282 0H76.3767C67.9823 0.0175858 59.5949 2.95946 52.4832 8.81746C44.6694 15.2539 33.8164 15.2757 25.8211 8.84664C18.17 2.69433 9.03934 -0.223845 0 0.173443Z" fill="white" fill-opacity="0.15"/>
<path fill-rule="evenodd" clip-rule="evenodd" d="M0 46.1734V66.4492C5.33703 66.0313 10.8062 67.6551 15.3672 71.3226C29.5607 82.7356 48.9117 82.848 63.1039 71.1576C70.9754 64.6738 81.6534 64.605 89.5903 70.9871L90.0007 71.3172C104.356 82.8606 123.641 82.8606 137.996 71.3172L138.407 70.9871C146.344 64.605 157.022 64.6738 164.893 71.1576C179.028 82.8006 198.202 82.9241 212.454 71.4639L212.865 71.1339C220.967 64.619 231.851 64.619 239.953 71.1338L240.363 71.4639C254.615 82.924 273.789 82.8006 287.924 71.1576C295.796 64.6738 306.474 64.605 314.41 70.9871L314.968 71.4357C329.238 82.9104 348.423 82.8492 362.635 71.2835C366.341 68.2674 370.649 66.6506 375 66.4313V46.1726C366.952 46.3995 358.949 49.2989 352.098 54.8746C344.144 61.3472 333.408 61.3814 325.422 54.9598L324.864 54.5112C317.826 48.8517 309.588 46.0173 301.348 46H301.197C292.802 46.0176 284.415 48.9595 277.303 54.8175C269.432 61.3013 258.754 61.3701 250.817 54.988L250.407 54.6579C236.051 43.1145 216.766 43.1145 202.411 54.6579L202 54.988C194.063 61.3701 183.385 61.3013 175.514 54.8175C168.401 48.9585 160.012 46.0166 151.616 46H151.473C143.233 46.0163 134.992 48.8508 127.953 54.5112L127.543 54.8413C119.441 61.3561 108.557 61.3561 100.455 54.8412L100.044 54.5112C93.006 48.8517 84.7674 46.0173 76.5282 46H76.3767C67.9823 46.0176 59.5949 48.9595 52.4832 54.8175C44.6694 61.2539 33.8164 61.2757 25.8211 54.8466C18.17 48.6943 9.03934 45.7762 0 46.1734Z" fill="white" fill-opacity="0.15"/>
<path fill-rule="evenodd" clip-rule="evenodd" d="M0 92.1734V112.449C5.33703 112.031 10.8062 113.655 15.3672 117.323C29.5607 128.736 48.9117 128.848 63.1039 117.158C70.9754 110.674 81.6534 110.605 89.5903 116.987L90.0007 117.317C104.356 128.861 123.641 128.861 137.996 117.317L138.407 116.987C146.344 110.605 157.022 110.674 164.893 117.158C179.028 128.801 198.202 128.924 212.454 117.464L212.865 117.134C220.967 110.619 231.851 110.619 239.953 117.134L240.363 117.464C254.615 128.924 273.789 128.801 287.924 117.158C295.796 110.674 306.474 110.605 314.41 116.987L314.968 117.436C329.238 128.91 348.423 128.849 362.635 117.283C366.341 114.267 370.649 112.651 375 112.431V92.1726C366.952 92.3995 358.949 95.2989 352.098 100.875C344.144 107.347 333.408 107.381 325.422 100.96L324.864 100.511C317.826 94.8517 309.588 92.0173 301.348 92H301.197C292.802 92.0176 284.415 94.9595 277.303 100.817C269.432 107.301 258.754 107.37 250.817 100.988L250.407 100.658C236.051 89.1145 216.766 89.1145 202.411 100.658L202 100.988C194.063 107.37 183.385 107.301 175.514 100.817C168.401 94.9585 160.012 92.0166 151.616 92H151.473C143.233 92.0163 134.992 94.8508 127.953 100.511L127.543 100.841C119.441 107.356 108.557 107.356 100.455 100.841L100.044 100.511C93.006 94.8517 84.7674 92.0173 76.5282 92H76.3767C67.9823 92.0176 59.5949 94.9595 52.4832 100.817C44.6694 107.254 33.8164 107.276 25.8211 100.847C18.17 94.6943 9.03934 91.7762 0 92.1734Z" fill="white" fill-opacity="0.15"/>
</svg>
