<svg width="24" height="24" viewBox="0 0 24 24" fill="none" xmlns="http://www.w3.org/2000/svg">
<path d="M12 22C17.5228 22 22 17.5228 22 12C22 6.47715 17.5228 2 12 2C6.47715 2 2 6.47715 2 12C2 17.5228 6.47715 22 12 22Z" fill="white"/>
<mask id="mask0_98_222447" style="mask-type:luminance" maskUnits="userSpaceOnUse" x="2" y="2" width="20" height="20">
<path d="M12 22C17.5228 22 22 17.5228 22 12C22 6.47715 17.5228 2 12 2C6.47715 2 2 6.47715 2 12C2 17.5228 6.47715 22 12 22Z" fill="white"/>
</mask>
<g mask="url(#mask0_98_222447)">
<path d="M2 18.6666H22V5.33325H2V18.6666Z" fill="white"/>
<path fill-rule="evenodd" clip-rule="evenodd" d="M12.0014 8C14.2108 8 16 9.79057 16 11.9986C16 14.2067 14.2108 16.0027 12.0014 16.0027C9.79193 16.0027 8 14.2067 8 11.9986C8 9.79057 9.79193 8 12.0014 8Z" fill="#F50000"/>
</g>
<path d="M21.8477 11.9999C21.8477 17.4385 17.4387 21.8475 12 21.8475C6.56125 21.8475 2.15228 17.4385 2.15228 11.9999C2.15228 6.5612 6.56125 2.15228 12 2.15228C17.4387 2.15228 21.8477 6.5612 21.8477 11.9999Z" stroke="#DDDDDD" stroke-width="0.304567"/>
</svg>
